<mxfile host="app.diagrams.net" modified="2023-03-07T04:53:19.945Z" agent="5.0 (Windows)" etag="GaGlUBQdpJ4GbfAVmv88" version="21.0.2" type="github">
  <diagram name="Page-1" id="Cv52aX-pP_6CrFpYf_RF">
    <mxGraphModel dx="956" dy="601" grid="1" gridSize="10" guides="1" tooltips="1" connect="1" arrows="1" fold="1" page="1" pageScale="1" pageWidth="827" pageHeight="1169" math="0" shadow="0">
      <root>
        <mxCell id="0" />
        <mxCell id="1" parent="0" />
        <mxCell id="v6uGh-rntbnxNq5KT3Zh-3" value="" style="endArrow=classic;html=1;rounded=0;strokeWidth=2;entryX=0.5;entryY=1;entryDx=0;entryDy=0;" parent="1" edge="1" target="v6uGh-rntbnxNq5KT3Zh-10">
          <mxGeometry width="50" height="50" relative="1" as="geometry">
            <mxPoint x="480" y="480" as="sourcePoint" />
            <mxPoint x="480" y="430" as="targetPoint" />
          </mxGeometry>
        </mxCell>
        <mxCell id="v6uGh-rntbnxNq5KT3Zh-4" value="" style="endArrow=classic;html=1;curved=1;strokeWidth=2;entryX=1;entryY=0.75;entryDx=0;entryDy=0;" parent="1" edge="1" target="v6uGh-rntbnxNq5KT3Zh-6">
          <mxGeometry width="50" height="50" relative="1" as="geometry">
            <mxPoint x="480" y="480" as="sourcePoint" />
            <mxPoint x="440" y="440" as="targetPoint" />
            <Array as="points">
              <mxPoint x="470" y="450" />
            </Array>
          </mxGeometry>
        </mxCell>
        <mxCell id="v6uGh-rntbnxNq5KT3Zh-5" value="" style="shape=image;verticalLabelPosition=bottom;labelBackgroundColor=default;verticalAlign=top;aspect=fixed;imageAspect=0;image=data:image/png,iVBORw0KGgoAAAANSUhEUgAAAEAAAABACAYAAACqaXHeAAAABmJLR0QA/wD/AP+gvaeTAAAAF3RFWHRTb2Z0d2FyZQBQaG90b0RlbW9uIDkuMM0c2DEAAAMqaVRYdFhNTDpjb20uYWRvYmUueG1wAAAAAAA8P3hwYWNrZXQgYmVnaW49J++7vycgaWQ9J1c1TTBNcENlaGlIenJlU3pOVGN6a2M5ZCc/Pgo8eDp4bXBtZXRhIHhtbG5zOng9J2Fkb2JlOm5zOm1ldGEvJyB4OnhtcHRrPSdJbWFnZTo6RXhpZlRvb2wgMTEuOTAnPgo8cmRmOlJERiB4bWxuczpyZGY9J2h0dHA6Ly93d3cudzMub3JnLzE5OTkvMDIvMjItcmRmLXN5bnRheC1ucyMnPgoKIDxyZGY6RGVzY3JpcHRpb24gcmRmOmFib3V0PScnCiAgeG1sbnM6ZXhpZj0naHR0cDovL25zLmFkb2JlLmNvbS9leGlmLzEuMC8nPgogIDxleGlmOlBpeGVsWERpbWVuc2lvbj42NDwvZXhpZjpQaXhlbFhEaW1lbnNpb24+CiAgPGV4aWY6UGl4ZWxZRGltZW5zaW9uPjY0PC9leGlmOlBpeGVsWURpbWVuc2lvbj4KIDwvcmRmOkRlc2NyaXB0aW9uPgoKIDxyZGY6RGVzY3JpcHRpb24gcmRmOmFib3V0PScnCiAgeG1sbnM6dGlmZj0naHR0cDovL25zLmFkb2JlLmNvbS90aWZmLzEuMC8nPgogIDx0aWZmOkltYWdlTGVuZ3RoPjY0PC90aWZmOkltYWdlTGVuZ3RoPgogIDx0aWZmOkltYWdlV2lkdGg+NjQ8L3RpZmY6SW1hZ2VXaWR0aD4KICA8dGlmZjpPcmllbnRhdGlvbj4xPC90aWZmOk9yaWVudGF0aW9uPgogIDx0aWZmOlJlc29sdXRpb25Vbml0PjI8L3RpZmY6UmVzb2x1dGlvblVuaXQ+CiAgPHRpZmY6WFJlc29sdXRpb24+MzAwLzE8L3RpZmY6WFJlc29sdXRpb24+CiAgPHRpZmY6WVJlc29sdXRpb24+MzAwLzE8L3RpZmY6WVJlc29sdXRpb24+CiA8L3JkZjpEZXNjcmlwdGlvbj4KPC9yZGY6UkRGPgo8L3g6eG1wbWV0YT4KPD94cGFja2V0IGVuZD0ncic/Pj1MfgoAABloSURBVHja5FlriGVZdf724zzv+1bdqq7qx9SM08Yx6jhGmZ5RGRMQRAeiJuSnxvyaHxI1CAkmPwySH/5LyAsCgUBIIAQlCIEIkshoEp3xEWcm04PzqulHveu+7z3PfXbWXlz6VnelmLQOIcFzWb3POXufOuf71rfWXns3ftYPgf+Fw1oIIWD/u3OcOri/+n9HwBIQm122fIi7+A578nkm6/88AUvwkgxnEvD677Wvd/5GEyLeCNBngBA4u7Wnrk8rAKdbPlgV/O43gBTxU4CXp0Cc6e2F3ThBljoxzsCiPAFiC0zCaTLeeFWIu/f4EtQpb57yNNk2mSbzIMnUcAzZ7jYlMAYsLCpU3PK/SyCHh0CZoDI5bLkBu8WkoCLDGaT8RPlC3G2CO0PSp7zOwANIaAauoesekkhBzAQwB6Q7D2UyS00UJIbBx6imMwjYuq3HUwM0MR4DJlemTAem14TBBVR3qKD6aYgQd+f1U+dLLy8O9raCWAJf95FOFOzcHh2jWUq082yl6QfH43Pn0OfnC1/nBYSthAnCbI4SOfwwQp4mkJjDoEKE4NprLXtpY1QyWSWqW6GzVIe5WxLET+B5eTKmGaxc9ClINvrNsppfU5WGTexghO4g+9jjQt37uFbti1aIjilGr3nq2r/Mxz945s1bLz0LhRyA/fenGhee+uH5jxdl7V3r681d7amDUE+e+tBj3/2HKMYEHrzJtCEa0WRBBAyTkZFtoVyq4X9GgrireF96XN6St4AYTqHaXchpAq2KyItqoYIZFBBobR989ENCvemTzdaFd3qegpRtlOUERT5EkswwGByVeXb4LVM8//W9g9o7b+yoD6+vbza73R6krCgE3LgKR0fH347DnT/9yAdf/l6vhz6IYEQzw/ALNoMNMrCxIl6HAMb4egScNHnL6x6ZWpiGBgF3kRzGvgc7MtMRou39DzwW1x/6dT/sPCwwgTHGep5vhQhEMj9ClqU2y0ooHcsgCJDnhoixODjYw2jUN55XF74v7Xw+g/ZqkvpEllVY6ernPTn52qPv+cZfhF5UzEZJUesiX5LAKqjYFiq4OwJOg5dsJ5Mag+efRh6F0F4AO7Z5iujm0WOP3NjpfiII2+/rdpuYz8cWtrJRFEs6UBQ5ZrMxfD+ivjksNBET2FqtKYKgbj2/Jo4Od8X1a8+R949gjIL2Yjqfk0eVuHTpgtjY2MTh3rNf/uD7vv3HaRF6YT3lvIEMBf0qXFgq4WwSGKcUp4CfjnWJXYYsFh7nKJ8P4iBu+QEwRJ4gGmW/9PA8f/cnRuP8F005QpYlUEpWsFZCSGRpgsl0SuBnUFLC8zwIaqVU0FoTIT4i4rLT6aFWa6PI+wT6GAf717G7e52eLaB17BRjHAG93kWTjP/50++/8vLXB4MInV4yR8FKMEjItsAEnK0ExqsFzq7s5C3wepncpik8ZbpBFPYtFLydg/c+bOQHPmkRfrDIR/roaBeAcYfSOkSSZDg+7iNNEwI0obZAux2h223B0xoeAc+yjLn2ic8o9NBsrSKOQzSb65AS2Nt9HjdvXMXe3j6UrtP9dnX/5Svy+Phot6a+8ql3PSReOD5Iy5VzSJiCZT6o2M5QgrXwxZmy32bgAiE0FpKfHcOrNcAEPfUf599Vivd8auPCg4+3251gf+9lAjs1gFBJkjigZCkVNEMCWDg1IM9TlGWBlZUGWs2YzkuUxtC4HEUBNBoxeXYVrdYGemsXOUyUEoCdwZgxtl/5IV599cfQXhPtzlZ14eJb5TM/evI773/3k0+srYWj2TBNax0OhBIpGYcCqrOSon0RgQaDPxXvEpGDfCLeM/gO/PXDTvel7Su/tbr2wK9tbl6sjUf7JNNXzHQ6ltNppggoeXpKwI9BFzCmRBAoeJ5gTwuRI5kbSJGz9MvSoKoAwQW+QRgGPDaZ7yKdz6EU6DriUHnT5UdgTIqbN6kvGcuqKkx35Z4rf/vVzc9+9omd3y8sAihUEIwFuEF2gc/N7Uvx5SHukD57/hT4FB505ENV/tPPfOwPV3sXH280N5EmfZPQh1jriTzPKU4T7O/toj8Ysvd9nvYs4tiDEBZFPgWQQ0owOdZWrBTAAyVBAhqgXg9ovOIxYaCd3OEHMfVRv9/E8dGLeG37BRz3C8wTZUdjY6/fGIqNtdFvf/6Jwd8Mp/Dbq5ijQsm/MXLOB8tcUJ1QfaCXRJwA7y0iXvBPMnibVN975uOfaXfOP+4HzXI+O1ZpOlLGOM+x3FEUBScy9Cv+eCEy1GsefN952dJ5hMqwAxbhUIGGk5y7sFbQvcxNjwj8GLVmC92VDWjtyPOhvQadR6jVNzGZPIU0Ba5e3RGvXZu6PpEk7S985Z/KF3/lw5PvD48Qt2MkCAFEMNjmBZY7qjtUUOmT8j8JfkGAnPfhxY0Eh/1eL81rv9rVNVsUlRwND4QDbIxleSZJgdncQMASCQIFAdS6IPACSlpoVYHuIggklPJoTB2kGpZ/u1XDbDZHWTjwPvVXZCldH8BWAYQIyQTCsIPRcJ+S6pAUAERxGxcvrggIr7rvvkvt567u/cE7HvjP37h8P45g4EPwvxoFqjOKPitP1vMOPP8AsO8TqLgRaRgUO4dveZuU3prvx9jdeVnu7NzAaDTGcDhCvz+kuB/AlBNk2RBa5fC8ArAp3Ztx3Pt0rZVr4cjgNgx9IqTG6tFakPw9tIiMlZUOSb9FYyQ8bWiMB8/TRNiIZoJtJKkik/TugkioodNpy+lkbMIwfutf/d3m70BAZgYhMviMx8MSJ9mJKtfqWx0BJPgWqHvJVppBhA1Uw0n8aKdbV1IGxlqoVquLoihdjDOA2WwCrd2jObUGvqeprw7f9wioICAltK6x9yl5AZAuBMgKSAVWBJHLYBm0D3h+A0rVUFkFQJH0+0TAMSjukWYaw9EUA1IEFVzuW2QY6krr+i//0Z91n/zME/2vjkYIWiEKduwNLpCqO2c9fdt6vnLg2cRieWrDNClRNZtpJh+O4gaKYi6iyOcqbjAYwRiXyIhq3wK2QKPpQ2vfxTwZCJAmMBm0snQeMWAhHDmCQ4RI4CkyDCSiOIbWAWw1c3mF2hJWujCJIJWP/vGrJP8JEZFjOitJgSmyPKPrFL1eXUhpbafdEC9fq3/uX78zfvq9V8rr82PouIkcZxzytl0Z4PZNCpAFyJ67euleIcIHnGTns5tif/8mzcfX6QOm9PIpETBnJWjtPOrk77zpTMP3SiiZsYStpXOlObEpZVjicRwuEp0lwAlgyVAS6AqmsrAWPDsIAQJ/A0mSoigtOSBHlpWLfqeqEvVaIP0gqtZ65y7+/de6nwOAzMBjh5ZgPGfkgJPgyRa/6bQOGJibN2tX1tY2I1hb9fuHYjKZE2gHVIG9F0qYcs4gpJQcElI6zysIJJwIa7WYZR0EikNFKwGluAQmEhYFD5xqciZKu2mPrKoM/83x8BUM+jfdNT9rjANvEYUab3nLfbhMmU8pnklEp9Oswmjjo1/6cv0jnTUkuwfQZ2zeVPLkzVvgDfisXgdQIEyK8Eqv16M5+BV7sH+DmM8hhGBvWOuY99FoNAAINxWyN4QwnM21dqBDJkrKAlLMXDLkEFA6ZLUoZZ2xp7V2pPoQQrEslarDWkXy38ZsNmSPCyFZIWGoQPxR0qzjbT9/DzY2WhCohKs8z51blbtHnc8/+wP/3MYayv0x1J31jxCw8tYNtSTBNcMRBMy0/NHVeKPT3nh3FLfcfC3X189hba3nvLhY8ChUVropjSXfbDbR6XS4sImiiK5X2VtZOmbQHmd/j0mhBMlrfiUNnbMaqK+JOG7z3+VcoTykySGF2j4vl0mEBN6ZYeUFgasaDxH4Je65dJG/ib5FAqUxRt3753/d+k126hl7IMulrry9Q3kNhQJlf/LWh9bOXVyjwseWxZRIWCdgLayuruPBB9+OdrsGKoNdcmOZ12Kfk57vzTiZ5fmEAEwgRMWgtfYWK0AyJcgqIoXDBVob7g/CNfjBCoTw6LqJPJ8RgVMUBSdMWGs453haIAoFk9horjGBw6FbRbrkDEmVKVWJ2ePf/FbQW2/CvPQS5J1E6GU0wJ6gRbApyMysPxqGEYTIKt+vqaKYscQbzXWsrHZZgpsbPbqXwdoM9XrIYNN0AFvl7MlGw8WzISDJIhlazhdK+xxKksZLpXnKU7oBLNSqdAQhQ8ymO0gzN2PAPcuzjtaCDGg1PTQbIVeZw0HOSjw6GqHVatuiMHI2zY62LokSNejwJRjcf/t2u17WAEvw/RFkd21SjYatlTQpH1EqQlxbEUW2yy9vNiS0p+B7OSchj2t+B8zFsERlXAUYwlaK2mpR3YETnJQ+xzREjIrGK1FCSAH3Du2tQOk6EylFnYnIkusg9WE+B0ylkaQVmQGARfGkKCSbnG8OD/f5mX5/gp3dZ6wxFvWGuLZ1bzqi9VNwYQvJnYlQYsHEyRDorkKiRHn1pcs/p5S+XJCMBWayLPuQckqyryPmcncMwsZTWaPRYU+bMoExE2gubmIiqeKPkxJElO+KGzalm5AyoLZDtgbtnyfbgvbo5TJEkd/AePBtXN/+Rxwc7HPl50J7NCoxmRgYoyn5tUElMFa6dWSkuJs7x0gzcCGzfzCT/UFiRyP74Be+1HjsfAfpIIGH7dsJ0IsNTqBaEjGZNVRDT4rjYeMRWqN7s+lrVS3uSAeg2YxgjOSFixCcuTm2jUlgq5RCYwWwGZ3Pea7XenVR2KSLObsFqVd4q0vIGFIUXB1KV/HRuPnkR+Txa265yztCh0dTzJJVTKY5mcDRcY6i1Gi2YrjQjKKaUxvHfb8/RZIYVJVytYEYj3MbR/r8d7/n/+Wnfzf82J98MX36meeh3rGFauF8o4HTR6M2MdMU8f6hebRXDQFbWNgJajXfhQKkrEFrfgnCsM6rtcqMIXnaqwAQINkCbLqY/mInf45vqTY5u2vPKegIZX4AI3Lk2T7F+k1eFCWJRZZbiuUhkrSBeSoxnigMhjmZ4b52W/GK8IUXrnMS9rREUaRwsi9LwXsNQCm051Xzuen++GXzAC7g3yY/QHSy9tEnqkA+DgdAr4P8m0+27xn0k4eUmKMk7dlqij6xH9ea6PXu4+LEEimets6DvJEhZB3z6WtETAzldaFUDCFAJqEASNUERB2mcJsdLyJNtsn6KIqMP3o6M+TlkggokefAbK6RFRHJOSUChNsDoNZyDoiihEPL0xX6gzG6nRBSajLeXSaDS8iWVCspcY/f/lDxFHbhv5mTIHA7AeXipub6Q2AD5trNsEtsNl3RY2KJLJP8h5P0GFrXeQ7O0n1Mx9sIwhrHM09vnNlnNHa8KHl9MtcnYMoRSjJKbOTtPd4gzQteFPG22XRWEcCKrj1eAGW5wlE/d96n+B6T90u6J+g567xPZjEzOeaJINJdWPJihmeM8ditT5RN00LYylz94u/hGjwocq45WRJrbMFyYuAWsIY77XiSWt7PtqAXSACaM7gP6STP5e54lPNene+NQFKD50xLKJVDCuPChOM0CBt0HjMJyXyP/0NkyHIu2fOAXewnOGBqsQYQjhAaV1HcO1UAYRhjPh8SaSAiQEDhnmfge3tzLsiE8GhsTveNC1lHAIQw322cx+j730DtF+5Hcec0CGwtNwyqEtwZ+J4ZTY2o1br0Uue5nOW2efk+tNrruH7tBaRZxEti2vXlGr9WC2gMiHm5KFQyZNkcQTpFGK3CD9oEChiNcnqmdNUmKq7GeY7nJW5RaJZ4mmbUChojmASlQ+oTLv6pBfUb+q6S1UPepzbnNQWRQfcLF6Ikfy3duG67eNpBq0eoGOttCsAt8JY6UX0f3OnpqKIXWOe9LC9JUkOacs5jY/MyppMDitUZvxyIUJoG0vGMV4W+L24tknjjwwdvfMSFRaOhWU2HR//VrtWF2FVd4bX2OffOzdxMCNowyTj5mYkaEKYPkdISCRiKSOxDXxrfWtDWtA9SSB/aUlpsfGugpTU2DyktCn0ojW0ftFCUYgy0sdVgCGl1ovgTJ5OMkxknc7n3/O69/da6Z+bcyeUwyhBUyIbNvYezzz5nfetbP3vtncNuGZqS1wdqWtZqnAdgHu/KVbuwd/UDxVEE3MtlnPYocgAn1UgEXeGdYp4Rxut9VQIRMxT04Ve+TK+B3fWk3X/2KCwdwormGo2NFpTCijBFwWEYkzKNjd2hzu8itD83tygv0kqvc1Y/BIBp4sNs1P6xxtccIc3r5DmEA22CAQaUFrozNGlUk9Y6dA9qZ7gmeHULAHA/D0QVomHNKHObqoa7ZpnhlzUZio3XlSazMERA1/dqwknszz3+Y7o0O03hF++knKgvE1x5wMGm3Zt5XnfQjCQUqLtthtcdoCYEmL50QVJNLUpEcQYhhL6y5pcXdxc2nrQMLlmiUjYMI4yJ4Cfa0HwGb24ggBUGFQBo8QTzedGsAmOdUTZYBTfAfR2r4yAYxnjxKfo/DGW8glGYnyy26h7f6Iea/F/aSK23T1Nz0/6+mkAfAHoag5nc4z9LbBzX/NSlBdq2dRHaH4bgMzQ5+abEY9hlol4cnrZYy3OXzpokqX3ivtWKsFaCbI6+iDnioqSdQwjx/k6ih4KBEKg+wXuDaxLwirlFeAFGGCbXIiTpO51XP4IeCAPUFw2tXwcnnoBlCY/uZLF/3rih1HyVCTD1NIQ/Ru0tsFYmijAipfPnz9PMTFs+RGO2c7KxIfTUFZlQufhwo9rJrfyXAqa8QBKhiLB3qGktsMO8wgJe3h9IM0ITzSoACkySWLJOte3BSNds1jiEyrUaVNS4idVEQPs6xim73MJCHBDZ1x552J2mGRrY0CjDX/9iqBQemtPauTl6xF45ey6fY3bDoJu/fOUDxgaEfJBqLk0DoC25PGkio7Rkjc+wXaNLVTbd8hdxIJ5ZC5qLAADYqodPEvXqSm3vFYjlk5LWqrkqo/TSUoD76B7zW4s9RGOAfBiI1mvoLOOEffbatU5gXXLy0Yf89/bvpYXJC2R23UNpLwAlA1Y2f9dd5J96iurf/9FbU/d9dewPgfE/uXz5Q99pk9ovGgRm7QhXWuBoDobF1pbYYtC1U6EpywoxFKYovYlSARBODtpORZBAJSu0KXmDat3aDNfCMLaYy8A8AsR131yXPxsnZiJN/JizTjZhbJw7xrOyserTzPK1hQ5Ayv707NP+B9u3UevdSxTu2k7JSuHLVNj0Cr/Um01lAd+2KfpdmuazcCgMu3cfzKr9AohUk5Q48UVsDnEtMVuFA7VzdE1WMFGoGs+txnjQU55R+y4yQIt74uw0fKlDRbca6xMXgDkccPLCl3ZnB0497x9+5KHga811/FtrTSysMMA5zZxpt/Ngfj4ygUl/efYl+93tY9QW4XcMU9pfEC13ioFeN03vtYuTJ4mjiIIHHqBk/30jv9i9e/sPsbXtLl68asTLAhRxQig6NLqPeFtscuZ6j9ks2yUqtVoiJ3LqJzAYACYClNIeQuJZ6fIcO2bPaaodZXL/4q6d/tgff08vUkzJhYvUuHOUIt5M7X17190zO8eH4IS3QfO6CG4O5H95+Ux2jOapMfk6eWg+F+F7zwpUAcDX28aJExQcOED5d765aTwc2Pwywt0t70/NIkMMjffq8CQCqK1CcA1F6pBIEiFNcJaBAg4qYL3mNZyhpq+hKstJowVY4DCWhXXCBiZ3cucOf+y5Z+ifEKYzj0dnZyDQONmpd8mfniJ68EGKZPy552kQZUoaHiYiaPvqJDUAh5MSWJn1lYL3Cr8MQMVRVwMmhPv2UfzowYlfzc53Dk1PzyHvyUKwgIfWi2YdR7q3b7kxIIIrmYqcPBQGaD4QGI3REDrXJWss8R691cpdnFhGiFONs6FTt22xT/777/QPwg4vhBmcfo/c4Djlt9++LIRbUtD4OPm77y7L3ZfPULDlVk13fSl4Ff1LALhi45D/j+IBnKI9/uTEHSf+evVVnNNpwgNLhgfBVPtKX2jPy95EtzRmNGsENhKuGE2qwOgB10Kvu8KtduqwlcdgAnc6jpx1/xoa8k+8cYqe4xHqvPMONV55hRgMtCpEb7q+srGYKyryjAI041uXmqs6d1wK3wtA9ZFXRiU1APr2/n0bvnGtle9NM74VYXArqLoFdr/Rw/SYfV00jOqLah1OadkUmFnLYwAH6bXxUZRyu52ZxVZGceT+g72HJ1542v5t6x6ldO3oUTITE2Tvvbf6bHDlWeR+T++obKXwFQcktFWcBjXMlCyPnaLG4V9T8+z/aP3sfO0L8I+jceq3DtTCzSYIh6M4H7WWRpjNplo93BAGPBgEDB8gTk/2CLIzJrBHf/NT+8z936K2RMDDh8k89hjZSqGrG1eww68i/EoAigGVR2Nhc+bKFeI9e8jB7lz1QUSdIzhyhAZffYma8636LWle25JZO5rGZod3NPXzQ50/f/3b1JJxx4+TwT6KA90dVbQ+IaqV5leOLWVb9aRoxcRleLxuPDRGsDm9hq/g6enuf4BDhUCVAFULvjoAfcpa45H5yoOSH0cLlc8qQPqrIC0BNDJCOORI/uDBLoM+rsDXa7QPjKLdKAA+OcLVNPWfTOAb30K6Qa1fa6sLdIMEX/tx+bV9aDnH5wSAaiFKiq5un2vxK58xANau2WqBP/1m1mrjS8L0/q4q/M12s91sN9tnpH0EtG/vmRpd/lYAAAAASUVORK5CYII=;" parent="1" vertex="1">
          <mxGeometry x="448" y="488" width="64" height="64" as="geometry" />
        </mxCell>
        <mxCell id="v6uGh-rntbnxNq5KT3Zh-6" value="" style="shape=image;verticalLabelPosition=bottom;labelBackgroundColor=default;verticalAlign=top;aspect=fixed;imageAspect=0;image=data:image/png,iVBORw0KGgoAAAANSUhEUgAAAEAAAABACAYAAACqaXHeAAAABmJLR0QA/wD/AP+gvaeTAAAAF3RFWHRTb2Z0d2FyZQBQaG90b0RlbW9uIDkuMM0c2DEAAAMqaVRYdFhNTDpjb20uYWRvYmUueG1wAAAAAAA8P3hwYWNrZXQgYmVnaW49J++7vycgaWQ9J1c1TTBNcENlaGlIenJlU3pOVGN6a2M5ZCc/Pgo8eDp4bXBtZXRhIHhtbG5zOng9J2Fkb2JlOm5zOm1ldGEvJyB4OnhtcHRrPSdJbWFnZTo6RXhpZlRvb2wgMTEuOTAnPgo8cmRmOlJERiB4bWxuczpyZGY9J2h0dHA6Ly93d3cudzMub3JnLzE5OTkvMDIvMjItcmRmLXN5bnRheC1ucyMnPgoKIDxyZGY6RGVzY3JpcHRpb24gcmRmOmFib3V0PScnCiAgeG1sbnM6ZXhpZj0naHR0cDovL25zLmFkb2JlLmNvbS9leGlmLzEuMC8nPgogIDxleGlmOlBpeGVsWERpbWVuc2lvbj42NDwvZXhpZjpQaXhlbFhEaW1lbnNpb24+CiAgPGV4aWY6UGl4ZWxZRGltZW5zaW9uPjY0PC9leGlmOlBpeGVsWURpbWVuc2lvbj4KIDwvcmRmOkRlc2NyaXB0aW9uPgoKIDxyZGY6RGVzY3JpcHRpb24gcmRmOmFib3V0PScnCiAgeG1sbnM6dGlmZj0naHR0cDovL25zLmFkb2JlLmNvbS90aWZmLzEuMC8nPgogIDx0aWZmOkltYWdlTGVuZ3RoPjY0PC90aWZmOkltYWdlTGVuZ3RoPgogIDx0aWZmOkltYWdlV2lkdGg+NjQ8L3RpZmY6SW1hZ2VXaWR0aD4KICA8dGlmZjpPcmllbnRhdGlvbj4xPC90aWZmOk9yaWVudGF0aW9uPgogIDx0aWZmOlJlc29sdXRpb25Vbml0PjI8L3RpZmY6UmVzb2x1dGlvblVuaXQ+CiAgPHRpZmY6WFJlc29sdXRpb24+MzAwLzE8L3RpZmY6WFJlc29sdXRpb24+CiAgPHRpZmY6WVJlc29sdXRpb24+MzAwLzE8L3RpZmY6WVJlc29sdXRpb24+CiA8L3JkZjpEZXNjcmlwdGlvbj4KPC9yZGY6UkRGPgo8L3g6eG1wbWV0YT4KPD94cGFja2V0IGVuZD0ncic/Pj1MfgoAABUbSURBVHja7FhrjF3XWV37cd7nvudhz4ztiT1pktKkNNQtJJQ6SUUpEvygDFKlgqAqoYr4kUpRhfjjiZBaFcQPKiGQEEIQkFAMf1CUEmgaI4UmtHXdxPa4bpzxeDx3nvd9zzn3vPbenLNlq0TQxHk0KpU/6fgx2nNnvvWtb621D27VrbpVt+pW3ap3sRSIfgCC1y+Cn6Aiy08uM6XUa5paeW6Fr6ysULzmi6A3vlac199XPv9vAdG//P+sRdjHfvPYDAAKXdcbXV5mK+oHYJT//l+ftfzOA0F+lI2fWj4lNeEB/N4/f/bXq/XKbzmOvyRlPpum2fk0S/7xpa+f/8ZzX37uJVyvO08sLjpztc+ZFfuj1YXGhumy3SRLnv/aH3ztydd89m+cEj+WAJT0PXnypCKE6MYffebRTxgW+UJjpnFCUYKKVUeahhiGI0yCCIP9fhr0o3/aubT9hKLsgckw/sz0sZmp2YUZSCYx7g8gE4VBe/jMYGvwpbNPnH0egNA6QqB+XADQlD2JHzT+ya988mO33TX3mOHaHx+FYyRprmzblJbtkFGvR1QqZJrm8KoeM6s2VK6gBLD1/W10rnaFZ/uEVamKo0i5dY8pBSKDDNw1v51n6d8/9YWn/2xF64UGQb37ALx24iCESAD47b/69EeCyfgxq+r8qtvwEPQDJVIl3ZrDLNtAlmUY9wL4TQ+TYAKDceVUHOnUfebZrnAsh7Zf2SEXvnEe3XYHhLPirI/JKBKMMXrwjgPk4O0HsPGdjd//9y8+++c31uHdB6BE/+QKVsiKbvyRrz5yvF6vP9bf7S6PgyGJx7GiIFIpwjjnmKQJ4k6IUS8ENxlM1wQzaPEwcJuDWhzluekDLfj1KrqdHnpXu9g818bWahsikfCnPFi+LebedwBzdy0kF7564eNn/u7M8yX79O/x7gCgLY3eQP0zT3z6/UeWbv98jPhT4/HQ3L2yi1zkQmWCeb6HdJKhv9tHHCYY74+RhTncloPGfA3M5jA8E0mYgAiCAim9Bs16A3bFxsyhGSgCXPyPC3jlm5fR3ejCn62geqQqj//Scdq/2n/16b95+v7wfLhbDqR43jQI7C0AplZPrar3/MrinSce+egfHX7v4le8aff41k6bBd2xKBoiNAVVgiCKInSvdTEJEyhCIKTQDbp1VzeeFeCEwwkm3QnSbgwoBa9VwXSjiSNLi/AqVVimjeZiHfM/MwdJJLrrXZi2STgxxNL7l1pZJu+69s2rTy5PL2N1dRU/OgAUCB6Hmv3FWe8jv3P/Fz/wieN/cdeH7vz5UTQy9jo9MelHJBmmlAiQsB9h71oHWZJCCAFqMhCDItgLkY0SZEkGkQrIXCKPM8hUaWQpZ2gebsL1PURpiPZ2GzvtLUTRBEooLH3wKLq7XfTWB3CqDp2/a14QRu7oDwf0xX994Vksg2EV6p0HQIGsPL5Cpqen6bFfW/zr+ffOfW7+6LzdDwYiTmNiMosahkWYYui3+xhs95CGCSABmSkwMCBUEEkOaJMAZCaRBDHC/QgyFbCrNkzGMSkA6vV66Lb3EQ0CgBIQCtiuBdu3IJCjYFrxhNg4v072ruzJdJj8gtt0zwdfD1ZvgPCOAlAITBlP5d2f/6k/bC40Hq23alk4iegoCKhSlEASxFGCfJJDMKl3nYIiiVIwzqAkICcSzDEgIbWyJ0ECGZaAANO3TZfntF4kwQRUETg1D3N3LsAv/q4WT6VZgeO5MDnHS8+cg5QS69+6Strf2SzZQb2m/5C74D4V/Fuwp/Xg9M2BwG9m78vm7/mTezxA/a5juUrGiu1td4iQEoQAhmEgDXLIkYAkgLIoon6IvGhIH1AKIpPIhhmoS8EtA7zlIwtTTX13xkPUjTQjuG1ACCCNU3Su7YODwfJM1IlCfaaO7Vd20d8cghsM9flaIZTT1HJNufCBw1N7V/f+druz/TEAAQByM/mA3kSk1Wdusw7dy8AW3IqPtQvrtAwsYWeMcG+E8fYQo04fQTrGuD8sG9PNF1aIqBMiHacQcYZskoLkAGIJKMB0TOh978YghIA7BrwpH82lBupH6mAmBTEUzLoJ0zMwGo5w5bsb4CYHIRRpkBXnXdTmajToj3K7bh8/vHD4j7UbLOveyNtmwP7qPgFQCteD7qzHLO7koIy3DrWghABTJf1jBP2xFqoszCATAcPj4KYPzg0QTiBR2p8HRg1kcQZqUUglkWYZIACv4aPRcmG4BpReE8A/UIHveRAQYIyht9FH/9U+ZCZgWhaiXoSdy7uoH6wjT3PGHS5s3354/t75p9qn2k9dX3HxtjRg/fS6Wn7ySRbufuvxhaOHjkgOFWURlXmOUTH5eJgg7IQa6yzKwT0TZtWCYVqwiA3bc6AYIIWEU3UhMgECCmJRCJmVq6GZ4FQseHUfnuVqe1RKgZkMYAQsZXAtDxvnrmHtxTVMghgqF4h7cfkz9QC4w/SgKgeqNE/SD8lc/UMySibXWa7e2gqsQH9z9+W/XLS4ca9RNbDV3qRb32tj8+wmxjsBhoXghcMIKlXa1tIohe/68D0fBV20aossgaE4slEOJjkMGHqKhFFYFRucGNoK4zIThDFUlAOBhBoDRKIA1NRcba+2kUwS3U42yZElOYiCZlmW5jArFnVtR8wszi55M96XdOMrKIu8JQBO4ATV9J9ED8wemfVEnsvOWpcknQnSIIFhcRicghoUGgQoMEYR92MwxcEshkkygaIEzkEXxAOox6AsBWIRvcu2Y8KrOSCKQOVKf24SZPCnKqgcrOjkSGyKte9dQftSW7sINQjyOAckwC2Ooz99FEv3LIGCIIkSWp2qiunFmc827m78staDtwGABACl+ANTR6aw9u0rcvvlLWRRqkUrGsVIcwHTt1CdqYBSoumbx7kOOkpKLXpOzQZzKHKZ6YCTGaluothX+HUfUiidCyzP0ncDyzRAJNUXJ7fmgimG9RfXMdga6ulTQvV5vSIgqLR8LH7wMKrzVUglSRplZObQFK01Kn/aXGpWAQ0CfbMaQE6fPq0WTyzWb7//6JcPv+dINaMZQAnRt7xxhHg8gWXbYJQjTTNwk+lbXqVVg+/7UJaEO+Mg6hdnC7AIJSjL9k2YjgXTMqEktP9blgnHd2DXXL0WhmkUD4dlm4XtdXHx2VUdmcuSuUIySjUA3ODgNYb6Yh2+42H7+7ulQBJiEjHaHc2U6Wy8FTz7w2yRvqH93Xfow3NLc/O9dkeFvZAePDSLmlfDwflZ3P3Q3fBnPASFFeZRBqfhglVMZHaC2AgRhaEORaOdsb7N2V6Z9gywjIFSdr0ZoS9FMCiyVIBbZRxuoXqwpsOU4/kIOiHCQQilpPZ/lUkoqTTlCSU6ZE07UzAER7fdw6g3BCTIpD9RYTf61PSJae86C8ibtsGaX3vQNR0yjIK88Gwej1NN8dnaDBrzLU3l2aUZJGGMJE5gNxyoTKC3NkA6TsBsVthUVa/EZCcqbU7bH00lDN+CooDiUl+JnYoNr+aCpIAgObhpwjYsbF3cRhbngCJQCkiCFJQTba+GZ8CpOLAK4OPNBFmaYrQ7hLbGXJCkn+4sNW9P9rH/pnIAKa+7Dz/8sHE1X3vIMVxYszXS6+1A9AQyj4C2GHKWaiFjDtWhxZiYoIQgyxUM2wByBSkVDIeBeASplcGwTBBO4RoujNRETnLNQ8uz0ZxtFM24mIQT+K6nWbJ5aRODnT4YGIhDtJ3mmdDAgxMwn6F6yEdOBHau7IMzXgAwxrmnX1ZKqnIAa2fOnMmus13eHAAKmizrR9bvIAR3j8MQ1DRor9NHGseF11YABxj2RyBMafEyGoa+13dW9xAOIu3jlmlh2BvpaTGD6seuOzrFudIHiRRs3wH3DVQKEZ2dmoUyJYSU2F5rY+NiG6++cBnpONbiyBhB1M8AqTQ76ofrmL9nDs60g34wQG+9rwUVjCDYDCnlRBme+eFCCH+2d7n34g0Q3hCAE4+fYKdxOgfwgOO75vrmhnQCj5qmAf+QA24YgFAQuQR3TFjURjgMkUZxMY06zIaDyV6ovb610NAvP6MgBgQw0/TQaLTAxgy26SB1UrAqh888PbnVM+ewdeWa/rzORh/RfojiJSnyJIXKoF2GOxzetAu34ZSiq4PUYGegA5lIhBbHYtVIOkqV02KLhJB/8Rv+g0E/OH8DhNcF4PTJ0wIrQLwfPpSVvhxnyq94WqymDjdRa5iAQcClAafqgVOObJgiQQ7OAaIYnFoFeRSBmhR2udtBAn+6mPLcQX3zQwvYv9RD58oecmToXN7D1uUdaLcQ0DY7vjZGba6q1ws5xySaaNCVVLpJJYCN724WecFDPlFIUx2SNH25y0utItw1ZJ6K6VSk7wNQAkBenwErWlzlbQ/dNht0ovtyIZAlKQm9UPt/92oXx37uqM7m42JizbkmWMWAWTPhWA6u/tc6HNdBdbYOVjWhCACTgNQU/JkqLNfB/vYOLr3wSvliE8P2EHmWaXWXUhWNCKhcCzasUuDqjg5HBARZrOkPEQtMhhMIJXUeGO2MYLgmDN8AScojSoul07CVaZs0DMNBwYb/BHSpm3IBJtkUgFoWZoDFCOUMkCg8uYe9VyswGMHupV1cObsGu+nCdC0YBoW+zk5C9C4MdBQuJqGvs0QBveGgaHiE9sVN7BZakYY6O+hgk0Y5lJQ6EusXppxqZ0j1OwWO4X5ptTlAiNYXPUah9FBykFIjNDNAABlnSEdJaamyAK34Q54D0L4+fflGDNAV7AXKn/cULacnqfZYYZtafU3HQFRMIAwSjX5BMx1JucG1NelXYVEOYjLYNQv+AR9uS8dd7JzdQdSJIFMJopQWLQKlrVUDT6n+P2FUNyoygYLCGkCv5WJwbaDbUOL6LCXRwIV7oY7khmNAX78zAbNiqlIzsigrpy//r9sh/WEAmE1ohFuLLRCTIFUZFFU4dt8xzN9x4L/btZZWu7Ii/FWtdfZJ7r15mKRNQuxW7AbBiQMHTsT4D5zqRFAQB/0zBHESHbYzpwZB0IG0CqINSuNrGKKIBjvk2emce177sVZVuffHvcglPbjpbuPkFhR773P22edUraqvvqp1UDY99kbiszfS0M3jNVYPlgSh9YMVW2Krjn7Z4+m/9vHk9hNs73bInsnuUIMERlWZSlYCCLC3aHYbuIMjtWE9EPSGVU8c0YZpAjgIsLVUhDk4G2hJz9mQlXWBqkZucpquI+IPzzcPYFt5EaXUMZfPwszw9P4C1z57Da9+/tMj3byH7WLLer47ApC5YfNwzYmOqCBZhiRBlIAGIJaRasJURTQlBAIsa6o0CkLQY8hPYuvKY+1tSiGWT6jASgUC1FocvhwQFjAxYkO3aBEBaj6tEBWppT4xsT8BlDiuAzid3b+/jzIUXH3tMpAUr37hNZTOcOutv2F5fwmdJ3hfwRDNiugqnWHVxlBskHOaNjLY6zdnZ9i5chZ5HGl5bwQ9SwEvkzoQHJoiDPw8ICDXb2asAmmeOCbjvQJSb8lCx4UHRAAIiRLSKcX83ClnOar4CzZ4eJj/x3ZA9ixZM8N62or65GhIMwLcrd/dwurBikbbZoAP7MthNRCD8QeIKTwZbC7k7922RdftoH2vhXcORWJURXFSZARTAnRGdWhSangcOouhbr39l9FbgCcZ0MzVZtQlKFnoCKQxbIZAwhT+cZj/x3bAYrENGGL/3j5Wj5a4MPL+u7fujZPYOwzNsi4sRWknHeQzgNMZagfA1Rl8oJGMgroyLN9ZsourZqhDgRsQ5myA2EL3lcZAFcQ3P3SMwwfnPcoegNBFgyWDFUNT4nU+lTA/fzqGbS/9upeU4vcfaCZo2mrd1DQ+iBsTTdvi9tiSdu92iHDqbC8TrRmG6qgH4akHr0EZyIALQWrWJoyrAhUaCesLVIWAOXQFEeCq8/0K4oQX47RJkkSU8LHWS5pnrUMF780yqk5OJBcQVdTWrHvaZa/+dpnZ24cxczwHcLsZ2Jvh0cNV/254XKm9xaPbD2RC+rDgyugsc2UFQL/qUQcQiGCAQKFJWL9n8xlrvZWCxYOODmDuupDbmzHMAXrOEQ6em1dEH0ih0AQjNameQgJSzMZSrJqSaCPkHqICBMJ68+3+Nveb/s3YxDewBkfkzzsU1Xf+/HB9/vL5c8i4HooY8162T1qCDVVBlGcdbxQSQsOb3JAANXvMQ3KG0QkEtn7VEcnrUJmWbG8RU52GmzOMk2RUq3BnvlsE1N21lOIefhOBxj1ecnNJTbYoDofHeO4+2FSdUtmWH/lL/nUssAAgH3goWof6w6GUR/O9RqytPnoVXglcnN8FgquZJUMgHG4UK1w9PrkB0unMdEiJ0YAAhc4j8zsEQTkob7VOamEIK57KUNAP/c9KV75sG/vafGd+XVS+L6JbAVLMoF5dra2pXbQ6ptp3bGPfxB10RybCzxcBnKbq8sfL5dlXznxs5AJf6pe9d6te80xhJBeB2ZkG4oC1dVQnoNWeqwsbjBo6rXDPaS7LWAnUtpLXhwdTKgA6LyzM3CVqTEaJu//Czb+NAd+D498AtGzLynv/1Xxv/iaSnNdG11HrP0pX74zP/66v/AYAOdD4sBsjghXeWL+3+Za5X6oDuxQND4Zs+7Q74AEVAqYBd3g5JMkJXiv6RQcEiOAB5jusN+Zt1INyZuxrNBApjLzgl4G4gYpfAxQ5UD88H+n0XwF89dken9dB/VCbo78Fo2B1c7V/+XNXL/bL7oubx5uhW3RixWLK8yhGulq3VTwc/GpjePPInJ5UEwegCmWJVFU2PXVTvBZOkDVqiFf/zaivwzjM/idoLH+jHzWI5/osuzvqjI9sc/TM5d03nvz98esRsSciYG0ejIAWwcFISMBhiNCAw8WKSa5ZRgHZXErcPk+SMJTBrTWptSqZnflbNq244eeg0HC6k/r+4qAcQXj/n/1F5uJnzn+lbO26Fb/k5q+ExzWvdiECexHRiAgHJjklAqWoMBUAYcVImlyyTuxM6lB0AjfvfGJpN2ywn+JoVBpeiBzfAc8CymXs7q5xpkhzydxehuPltJOuquYrGK/d4hOa9OMpp7OadEdURJIQC8pQ/mi9/cBa+wkAe17DX7wDjuJFHDPUGpzD7nw+v9Dk5mq1OjnkU2hxd/N0cxNAAeVIjr9wkY/gc0KlUuI4Br14w1/8X9LlfY5yxEEnciInciInciInciInciL/N/kPXzEI0Qm/oWUAAAAASUVORK5CYII=;" parent="1" vertex="1">
          <mxGeometry x="248" y="289" width="64" height="64" as="geometry" />
        </mxCell>
        <mxCell id="v6uGh-rntbnxNq5KT3Zh-7" value="" style="shape=image;verticalLabelPosition=bottom;labelBackgroundColor=default;verticalAlign=top;aspect=fixed;imageAspect=0;image=data:image/png,iVBORw0KGgoAAAANSUhEUgAAAEAAAABACAYAAACqaXHeAAAABmJLR0QA/wD/AP+gvaeTAAAAF3RFWHRTb2Z0d2FyZQBQaG90b0RlbW9uIDkuMM0c2DEAAAMqaVRYdFhNTDpjb20uYWRvYmUueG1wAAAAAAA8P3hwYWNrZXQgYmVnaW49J++7vycgaWQ9J1c1TTBNcENlaGlIenJlU3pOVGN6a2M5ZCc/Pgo8eDp4bXBtZXRhIHhtbG5zOng9J2Fkb2JlOm5zOm1ldGEvJyB4OnhtcHRrPSdJbWFnZTo6RXhpZlRvb2wgMTEuOTAnPgo8cmRmOlJERiB4bWxuczpyZGY9J2h0dHA6Ly93d3cudzMub3JnLzE5OTkvMDIvMjItcmRmLXN5bnRheC1ucyMnPgoKIDxyZGY6RGVzY3JpcHRpb24gcmRmOmFib3V0PScnCiAgeG1sbnM6ZXhpZj0naHR0cDovL25zLmFkb2JlLmNvbS9leGlmLzEuMC8nPgogIDxleGlmOlBpeGVsWERpbWVuc2lvbj42NDwvZXhpZjpQaXhlbFhEaW1lbnNpb24+CiAgPGV4aWY6UGl4ZWxZRGltZW5zaW9uPjY0PC9leGlmOlBpeGVsWURpbWVuc2lvbj4KIDwvcmRmOkRlc2NyaXB0aW9uPgoKIDxyZGY6RGVzY3JpcHRpb24gcmRmOmFib3V0PScnCiAgeG1sbnM6dGlmZj0naHR0cDovL25zLmFkb2JlLmNvbS90aWZmLzEuMC8nPgogIDx0aWZmOkltYWdlTGVuZ3RoPjY0PC90aWZmOkltYWdlTGVuZ3RoPgogIDx0aWZmOkltYWdlV2lkdGg+NjQ8L3RpZmY6SW1hZ2VXaWR0aD4KICA8dGlmZjpPcmllbnRhdGlvbj4xPC90aWZmOk9yaWVudGF0aW9uPgogIDx0aWZmOlJlc29sdXRpb25Vbml0PjI8L3RpZmY6UmVzb2x1dGlvblVuaXQ+CiAgPHRpZmY6WFJlc29sdXRpb24+MzAwLzE8L3RpZmY6WFJlc29sdXRpb24+CiAgPHRpZmY6WVJlc29sdXRpb24+MzAwLzE8L3RpZmY6WVJlc29sdXRpb24+CiA8L3JkZjpEZXNjcmlwdGlvbj4KPC9yZGY6UkRGPgo8L3g6eG1wbWV0YT4KPD94cGFja2V0IGVuZD0ncic/Pj1MfgoAABzXSURBVHja1Xt5kGVXfd53lru9tfeZ7p7WbD2rhFgkMBICDYyEDMYEypYiV0IEUVKhQlWqqFTKpOKAZIcK/1CmUpAQNhHAwUI4KAYl4IQg2WbROiBpRjOa0aw9vXe//a5nyTnndldcUw6pWVSQ233qLu/e9873/fbfeY/gVdy01uTBBx8kAOjtt9+OQ4cOKQCaEKIvvQ+AvZei3NQDDzygAWi8yht/NUA/8sgj9NixYxao2gChLrnNkbIJ1hLyt91nSKBHjx6176deLTIIrtF29913s+uvv16bSW+CwOzsbOPdf+fde3Zu3/namanpXQboVBynWwA0+904yPIE9Xot45y319ZXlzud7vzq+trpsxfO/uKxRx87CaD7t5Ahf60I+Na3vsUM+E0p4t577505ePDgXfV6/c6RoZHfGB8f3Rb6FdYf9JDmKVZaq5BKoNfrQ0qJ6alpDDWHAaURegGkUlhfXxfLq8sXV1urP5u/MP8/jxw58hcG/PnNOZvPo9eKCHK19r0p8Y997A/ewT1+/7Ztk++a2jo13Gl3sLS2hMX1ebx04YRaiM+rJEtBKCcqFAS5hoKC73mo+k3tU64nm1PYMbGT7p7aRbeOTqFZb+DCxQt48qknW2fPnP1vHiFf+c53v/u/UG4UwFX7CXKlUr/nnnucBB566IuHhKIf01LdNTk5ha4B/tMjP1FHLjyn57rnaZrkoDVNeMgAqeEHVfDQh+xlkEKCgYF4FIQSeJojqIYIolBPV2fwxj03qdktewinHj1z9jSeeuopdFvdH9SH6v/2m9/85hObpnc12kCuFPyHP/zhiVtvvfWPxscn/rEf+uTU8ZP6hRMvqr966S/porhASESgCw2eBeARRZEXIJqC+hScceSdAlQTMJ+DcAKfB+4coQYhDPVGDVEtQkXU8MZ9N+vDN9+h8iynP/jBD8ixl45pSukXp6en//XnP//55ashgV2Wo/vW3ezBex6Un/rUp2573ete92c7d+74zTzPyJHnjsg/+a/foH+98ARtY51QRoCMQq0BspCQqYKMNfRAAymF7EmQvtknEjrRQEKBXEEJhWxQoDBDKw2f+OgNelhqL5BWvEanR6fJ61/7ehkEAV1bW7up3+2+Z+euXc8/+uijZy0JNvK8SgQ4yTvwn/3sZ+/dsWPHwwcOHJiWZnvmqWfoV/7LQ/RkfBzcYyAWeAzItkTeFY4IkhCovoIcSBDJIFKBQmeQWkLlCkIKEFHep/sAFRSqUG5PFIGWQLvXxokzL2PX9ll66LZDGMR9ee78hYk8z+/et2/fGUPCC1dCArsctTfq9nvj4+Nf3717d5gXuTx14iT70p99CcfXjiEMQoi2gkwlyIBArmuoQkJzhczPkOoUKc+QNQbIagnyZoailiG3o5Ggr/oYiBgFzZ2vCHQIVjDk/RyyKFDza5BK4vip4xgdGcVNN95EV1dX5MmTJ8OoUnnf2w4dOvWNr33t+U0SrhUBLv5+5CMfUV/4whdun5iYeHj79u1+tVrVp068wr7wp/8RT59/GkYlUcTSqbjua4hCQNYLiFqBopFDNQroQIHUNbwZM7YANDAjAvgYwBoAqIYkErKeI/UTDOgAWmqInoQYSOR5Aa0pGKF4Ze4V7N2xFzt37KLnzp1Vc3MXaaUSvvvOO+788Ze//OUzds6PP/64vloCHPhPfOIT+uabbx4jhPy5cTpbms2m6vcH7LHvP4bvPf0ouE8h+graDBWbEUiorQJkqwRpagfOH6IIJjiirQHq26uoTNUQVkPUt9XMeQ2ceWAeBQ0IKCcABZQvMSB9DLIYqgB44SGLU1SqFRtKsbi6gMNvPQzKOHnuueeU8QcBoN/6lrfc9p8//elPx5skXHUqbIDrhx9++ONG+rNRFAkQ8HNnz+HJYz9BIQU84TmnhkJDjQlgRDnQwSRDUA3ghyFqE1V4oQ9VaISNAMxnUFobEnxIqZHWUiRmZK0Meb9AkRQQaV46RC3RzVvmWobRZBSdlQ6kFDjaa+P54y9gZts0rpuZYefPnxdGS3YvLS9/HMA/A0CuSgO01vTtb3+7Ms7lYBD4nw+CkI+NjVEpFfn5L47ge3/550izFLIPaKmgJgXYjAZvUDSMhMdmxzG6fQyju0ZRHasiakaojBgyhiP4VQ9hLURUDxBWfCdx2FBY4QgMQZ4hpjIawQt8EAZorZDp0o/4WQgGD37ow8wJt73pLbgwN4fTp18hlFJo6Bu3X7f9Ow899NDyphZckQaYuOoYDP3wvlqjFnHOJTNbPBhgbmEOSZ6B5hwiLaAawtl31Uy61qwhGq+gtrWKxpYa/MiztuxIChsGtAEuMgHKyuQnSwtUCUEY+bBJU9JKQTigQcCqHJQxcBUjFikSkWExW0Qtq6NIU5y/cAa5yDE9PQXGGTHptRwbG41GR0fvA/D7tna4UhMg1ut/9KMfjbr97nu4x/TY+DjRWoNShiRLXGKjcw3VVOAzBJV6FdWogsrWCqItAarDkQEblIkOAEoJKo0InjkvfIcQjFN37pshcgHSIhCpBPUotIT7DBEXyNYZAkMcVRSx7GEhuYDRbBzt4Q7SNC3fn1Aoog0JPe153ns++MEPfuKrX/1qCoD8snSZ/l+cn2PupptumlVKzvb6fWLelFQqkc3d3YeRAkBVwdsFjO4ZxtC+JniDg1cZGpM11EYqTvqcUwSRj6haSj+sBNYBumthZI5rEYJK4M5rw1XUx6rWNzjn6ptr1GdgEQPlgFfzUBmroFvpIM5iFLmEH/iIkwQGOAg0kUKQbrc72+l0Zv9mtntZBJhqzj3U7Q72S6lM2KsoSilRSrtYPNRsgmoPiis0dzass3NqHo4bQCMhoAm80ENUL0FXzN6v+CDWRjWB7zFHBCHEDIB73A3mMdSGKoaIinue+wzRSIhoKoQ/7oHVzHkzNEQzDHgfgeeDMQattQuT3V6PpFmmut2ev7KycmCjViCXbQIm2XEP1WrRxJYtW1CpVGzu7T7M833sm92PseYIFlkKLj0oIcHrHsKmj8pQAB5wMEYtEY4cRimox0rGCZz9A3CqrlIFJSXAqNMYwSmkVKhTiqSfQutSTKJXIF8r3AkVFIXOMdwcdqn28ePHURQ5hCD2Wd1o1ME5nwAAQ8Tla8DmZkKfNzk1hUZjyCU7VgPCMMTU5BRed+MbILWATBT8kQCV6Qh+jcMPuZF4AEKJBWqlaIE6e9889wLPhUXubTg5r/QDlmTuWZLtdVq+zqnTDF7xQDwCwuCu6UBj//4DWLg4j5OnTkFK6TRBisISaoXmY2O7YgLiNLW2j1qt6kIOoA0ZDUxu3Yrb33wIo0NjQEUhGPIRGsl71uZD30rbAaCUOK1xvsBj7pzQDaCMO5NwMyBOcrCbKKQrhAA46YcGeFDz4FW4HY4wwXPs3LMTt9/6NvzsqSexMD9vJW6F5EgDKT/3igl44okn3H7u/Hld5LnztIN44Bi2hIxPjOP6/QfxW7e8B5kooBWgpdNvK21nv561a99Nxr3OOHM2r4RwqXJhn5PSaQY3QwrpwEuh3HGRCRDqWCiJI3Dvl/dyqBT4F//gY+h2ujBxHgCcdto/gMD3fcffVWvAqVMvx+122/btEAYBPF5Kb3h4BDM7Z3D4xnfi8I53wnhcFLZoyaSzSbLxzkpJZIMUcTdB2k9RpAXSQY6kl7rzPCmQJZnNBRxw96wFzKkD7GqBXKJIBJADeZwjzhL887t/HzduvxHf/s4jxsZXrfY4kpTU4J7nIoNQIr7irrBJIBx7i4sLc6deOYndu2eZAaODMCR5niPLMuy4bjsGvT7ep38HlbkIf732ODTXiOoR8ii3ANzk7QHRMETkzraVUqCMQGdOum7ySpjhVF858Epr5yty84woFESs0B8MnKP8ww99EncevAsPf/tP8cILLyDPM2itXErNmKeVlMxqW5zEFzYcur7sVNiUkwSA3rVrNgui4B/N7t4dmOzK2hixTtCSkCQJtkxMoJAF9tQPYEgP41TvBPq0D0Y4PMYtditVp+pCyBKo3FBzpQEz8kRASWWBupHGhSXLkuck3l0eoLPawo7mTvzBb/0hrh96Db78tS/jmaefQb/fd3ORUm4Qy4x2DpGoEvba650HFxYWOptYLjcTVADId7/73TmT/z/7i+d/frvpASgpFRsYScRx7EwhSTNMb9sGxhdxi7wNU9VpPCN/iuPdo1gj66jVa4AgQFGqdc6LDUfojNv5BiEUKMq9SIXLCPMsw6Cfor/eQwND+N29fw+/u+9erC2s4t/9yWfw8nHr9e19uXN2LkS71Jqp4eFhapKiZ802p7UmZlNXVAtstp7TPH3kmWeeOjQ9uY3cdPMbIYRwIAaDnpt0FEUmKkwiqkQYWm/gYHYDjq8fw7H0ebwcv4S2XoeguavjGfVAUXpoQok7Vlo5b9/vDAzgfunBU46t3jTev/fv4k1jbwbpUDz26Pdw9PhR4/EXndRdD6IoQBQFpWUq3BxqEqkL0ul1HgGgTDrPAMgrbYpSAOr+++8fKYr02YMHDuz47fe+X+3fv58uLS/ZCAHTGEG700GlUsXw0JB7otPpot8aII0TrAxWse4tY4HO41znDFb0EgqvQJIOwHzqWmI6B3RKUJVVTKhJbKvOYP/49dhe2wHkBEeefw4vnz6BCxfm0Gl1IUSBdqftSGTUJU1OKM1mQ41OjFHTjj87Pzd4w/nzL7Q2MVwhAf+n5fz377vvQ41K7StvuOm16k1v+g1qW1J9ZwoDtNtuMk4i1k8MBrENcU5KDAyhFzrv34kNMXkP/bSHAjk0AVKZocIr0JlG1augFtaxtrSGheUFtPotnD17Bp12G5QwZLlAq7UGYp/Lcgz6fQS+rSdCZ/vVelVBgZri7f4jzxz5yubcr7YtTjQ0CO6h7/sn2Y92VXa+tVJvyDvfcZhNTm7FwuISpBAwxZKbWL3esDHYTdDnHJ7vAdDI8gwEBGtrLZcAFVlupeYcV7fXgSle7N4R1+m2zX0daC0N4K7zB6LIoDRFkgws2S7pkUo6kqvVyKj+kBzECVsWi3914o6XD+EBaJTbVXeENHHQIJ/c25xrP7eOfa2DeOz738OeXXuwZ89eEMZsRHCTWl5athOzpmEn5/JzZongHtbX1yBEGeoGycCA7huALSPJGIQopGmGTf/S7XTK6o5Q6xQdMZQzRxjnNg9pQmq4cxCJ3moXc3oO7betzBnwarMEvqarw3JMeUd3PA/+PMMs34sXs2NYMaD2ze7FzMyMqxHm5uYwPz9vgAsD0ALQ7nq9Xi9bX2lqwdko4jJL01t0JuMHzJASI+5nYIy4a1maglLq3ktDW1NyKl8z5DaGGlDQaHdbiNdtk2QZqwcXEW6j3rVfHtf2X5Prvj2isz0Fjsw/B/Q4dmE3zmfnjaTa2NXebTq0u50PEOWEnSSFEG7SWmvX+5dSOo3JC5tMFe51WCiauqyvfI7B9z3kOUclqkBpJ1CXhRJGEFZCZ1JplqG12EHLW8XSjnlgUoM2qQZArikBm43R6UebKhj1kB4o8PMTT2GttYzddB+KJMXy8jKOvXQc1227DiMjIxgbs0mT71S0yIVzlL7nmeMM8aBvJey0IAhs5ddA3E8M2MgRomHDWR2ceghC33WfKGPOEAklduUYibk/ThOsV1cx2NcCG1Ig0wysCQWgdFvk6glwbfEHyAP6m59+dOaP84/fOlc5A0MCSbfkOJmfwGJ7CbviWTRFE4veMsxChSFg1C2SRGFYVoJ+AFEU6PVt3pADWoFSuBRWSoqhoWFkPIPWcCQJKc0+AG1wCF0AmUISp6VgpTYEtLCer6E73EaxI0UwxMEajGBMQZ/zbr1h6oaZF8nT1hdQM9S10AB9dPnIvyETZAYTkKxHmb/VgwYwqHbwYuvnGM3GMNwfBev4EJkECDbqeWZ7Cc6JFVnm/AJnrta3CZRrroBYTqQrciQkiiLDICG23jAjxaA/cKkx4UBP9LDmryIdi8G2AN4WDm7XHLZxGlcSWV9qzkzdMPxHL87jg9esLf61b37t5qX5xT8+op8mar+gAfVJEHqgIVyjQhcaSdRHu9JGO1/HoJO4ZinRHEkvsQWTk2q33bV1g8sftIWqpc3lnbPrDfrotDrI0wxS2XogRTxIEPdjxEWMdfO3WlnCemUNopHDn+EI93IEYwz17SG8YVv8pGQ0HdO7B/uvrw/Xv3/hqxcuXpO2eJEVH+Sc+92Frqwrn/p1DkZoGYtHJJJmBhFLFCsSnWAVrcoKLhYRwl4VNVUHj31UOhUwzSFz4cpgRsquTxnatF3odA4SFPAqHjKSIiYDJHyAmCYQYQESALxJwScI/G0M0RYPlQkfXp2Z53OAgBSJVEPNIWNB3n0AnrnqtvgHPvCBajqI73IhLWGEtRn8JkdByvo7susAW0Pn0ZPFHGpNooilW/tvXVjGWr4EXuWl2icMcglACFDJ4MFVi6XahxIasowUSkJ7ZgQaRAJEE/g1BtoAvF0M/gR1c4iGfEQTniNQxgrQQLyaEe5zbfKQ37zxxi1VI8QBgMuuBl1b3Ay9Z8+e/YUUO2zurxWIWNbQHgEPKajZe4EBR5hrc1drEpi2DRCBZC1DNBUgmc/AqhRsiCJvC+gJAaIBEthaP4EYSGdCrqMkzOho6AHgjTBQn4BwMzyAD1PQcQLP7iOKYNhDMFRabyHkxlI6ARmAsCYjPOA7eDSxH1h6Fg+AmHF5BGy2xT0v3Ks1eJzEKuvllF/U8ClHMOWD1xig4SbJCHHeGE3AzyTChufq+tqOCDrTLsbLIQlsB1RfowxWGkVXuoUQeKWMRFu66zSkjhBaAZhPHIm0RuGPUkhPgUUE2CBH9qXrLMM6zpWcoAEVBAEvBPYBePbQ44fo43hcXQ4Bmw0R5CIZG45sfu9p2VZILqSwDtBJ32dABNA6Bcn0ZsLgVnlJ0wOPuKvvKYfLAlVuhlJO4i5SCA09qSFyVUaCQkHZa0Ih7yvwitUygIbEkcPrFHyEQmBTazTyjoLOSiEUCwp8SaM13tY2T5BCjl51HtDudrlZEketVnP9/6IVQwwUVKKBDG4VCEoDtGxXg2mQosxCvJCB1wiI62Y6wULkpYSJGcpqRaZQ9IQlxOwBQhUUowiZk3o5glLaoNoRTwCXHcrYkqrsCVRPQ7yiIVcV2p0WBqkrmvhVE9Dt9Mp0NgrABEfSEig6BcQ4R75eALD26rnOrizKlhdRKJfOPIBRBs02yIF2ZqOhLAlO2kW/AOEMLCPmNWpNwgwBalU+LDVAl4hBoEsyC6v22t2npXZkFBcl5LwGJz585tnwe3Wp8GarWeapkEK69LZBG+j2Wsj6OaI0gMgU5HJu9gL+UGnEKlAujnPGwMIAWjv1tRN1Tk3mErJQJSEaTros8pwfYLm9Ttx9WisQ6m7ZrBGcKeTd0uEVHWHJchpR9CTEggRioBHWoYh2+YWSKK6YgM1OaqffW+n2urjhhoPkp0/OYLm1CBHnKPrCLX9RBsiUuK4tjxholUBQ5SRYxArE/vFSdaUiEANhtcQCd2CdzetygGyYUGAPGWTmwDoi4AFKlMBVpl1EcSFUKGQXBYoFAdblqFSrpnN0jpRlNV3dxHLZ6wL2O7+lBsgTr5w6JaKwSvft3adrSQOyC2TtFKmRft4REPmGHSelc0KqocxwktMKIlGWDBfypL0nt6ovkbULS5w1A3eem2H9ixYaMpXOP4DBSV9lEqInIVONvGv3yvmQdFFg8HKBbE7DH1TczSvLaxRW+hrHNxK6y2+Lb5qA+Yp71yw83Ds5OTmya/dO/cqx08Q4RshmBiLhpGj/YIZKSmkRj7jXeIVB89LZUVoCIQQOoEgd0DI82uNCuddELNz7qFw526eBfUBbohypMpaOSC0BOVCILfiTCnIRGPXGbJNUW5M045WTJ05+EoC40lrA9QO//vWv5/v3z+5WwJvffvsh5Yc+Pf3CGQzyAXKSuIl4NtOLKGSuoa39hwzMDBCNdCBKjy2kjQAuFIq+k6DTBpkre+xUXWYW+IZnx4b9K3fuNKPoWK3QEG1zvCKQz9shIRY1wkEVgRfY3qPyPZ/Gg/gbcRx/bwOfuiIC7rnnHmILide+9vULC/MXPwSA33rLW9DptcnpI+dcdyfLcoDBLVqWUy5jMgDn7BwYVUowiwtoK9lUO7AoATpQKnUgnU+wfzLZJEY7J5evChQtBdmRyAzoYk0iX1YQ8wBfD1CP6rZm0SZckyzN8kxlH0kH6dJmGnxFBFjwtpr63Oc+tziz87rrzArsTWa5XB5++x10bWUVc79YQNrLkRU5BBGlNA0IUDhpZ93cqTMEcdeLgQCkNoNaUhy4vFNqRd4S7lwOJPK2dMQ4X2EBLxbIlxwBBrQ0xxJiTUNeBPRFipCHYJqhUWtIxiiTufzKyuLKl+Bmcm36AeS6qdGPzy+s3fWjJ354nR+E6rff+V6aJhl+/OMfY+3FVaRJgXQsB/O4c2Y0KEMZqzCENkQyuIVQETEENUALVZpDbAko/QEYcftNz+8SJWsuPQUlAZ0pF/vFGgFWKFjfg1/zENII1aCibOITx8n53Ms/AYBck2+KbmrBZz7z73v79h04muXpPStrK9zYmX7NgdeQSi3C4tlF9M8nQEwgslJioitcDaASQPUV8nWJbLko7X+gHCjRksiWhMv/lVN5DbURBYq2lbJCsWpGW7lqT/QUsOqDLfrwhI/AD1AP6hiuNZXWIJmxRwX1e0vnlp7flP41+7r85iLD+3/nvf9wECdfGhsbJ1Nbp+TuXbtZu9fC4z95HC8+fxTryRqUJ6HqGqSiXFLDqwQkIBAxnGRZZMtZWhKRlzmClrqMHiGg9Ya3b2moWAMpQFIGKhi8JAD3OTzK4SNANapIqSRL0kRz4t1/9uzZhzaEKl+N3wu4N77jrjs+VOTFf6g3GsHo2KjcPrOd7dq5A+cunseTz/4MR48ddctlBc2hIwlVkw7g5pS0r0EjAAUBqQCshjKCZABlgCoAZARkldn6w6XgkkhEfgRODHjioxbVoJSSWZayLM1SaPJPTTv+EvDXkIBLSbjtttvuEDL/fKVe212rRHrX7r1qauskGxkdRXfQwYnTL7vv7Zw584pb/Ej6MRRR0BygAaAJyuKmQpzkmb2QbTRJErZZWbrmKmMcSghU/Ko7h4YsREGTOCF5kp/STH946eLSDy8Bf+0JuJSEW255x7TW/U8GoX9fUKkiiCJt1gzVxNgYHRkaJsxnBvy6q8zmF+ftqq5b1IyTGGDaFUzaA3jA4BHuCieqCPKigM9CUMIgM4EojJCnhdZaqVzkdNCPSRq7cvc/+b7/r8xizMVLwL/qBOBvfuA73vG2dyZJ8S8p54csGO558DiV7icvXpWOj42hVq+STq+HzqDjur1u0URK5LIsjwEFJSQoiCOmEEpbqRfmoDD7Xq/L2uttt0yWpvmPhMw/tbyw/BeXzuVKCbjaZzUA3Hnnne/uJ/37CyHuhNZ17nEQCifBSqUibZqqNIhb7SlkuejKGLI8h0GrHRKPaeI8esrSPHOLKiIvDAH9vsjE/9Baf/HcuXP//dLP/5X+bvDSZehbDt0y21ntvCsIgsO+773JIJpM4gyUEeRpDj/gIK5oIK7CU1pDClGW0ZyBMWrVW2e5WFSFeIpT+kOp9fdPnz598lIN/HX65SgxRNBLf+J6+PDh0Xa/fwBC3FgU2c5Cym2EkC2U0mYhCl9JBXOeCSG6SpNFAnWRaHLGXPtFmqbHL168uHbJXDfju8av8UZxCPyXkWuSK/6u2XcFs7OzgflBNf+lAirfi+L/040YsHQDJPt/AKHlPSXgy9LOX70JXP1n/qrU+n8D9XUhwRv9SbAAAAAASUVORK5CYII=;" parent="1" vertex="1">
          <mxGeometry x="448" y="688" width="64" height="64" as="geometry" />
        </mxCell>
        <mxCell id="v6uGh-rntbnxNq5KT3Zh-8" value="" style="shape=image;verticalLabelPosition=bottom;labelBackgroundColor=default;verticalAlign=top;aspect=fixed;imageAspect=0;image=data:image/png,iVBORw0KGgoAAAANSUhEUgAAAEAAAABACAYAAACqaXHeAAAABmJLR0QA/wD/AP+gvaeTAAAAF3RFWHRTb2Z0d2FyZQBQaG90b0RlbW9uIDkuMM0c2DEAAAMqaVRYdFhNTDpjb20uYWRvYmUueG1wAAAAAAA8P3hwYWNrZXQgYmVnaW49J++7vycgaWQ9J1c1TTBNcENlaGlIenJlU3pOVGN6a2M5ZCc/Pgo8eDp4bXBtZXRhIHhtbG5zOng9J2Fkb2JlOm5zOm1ldGEvJyB4OnhtcHRrPSdJbWFnZTo6RXhpZlRvb2wgMTEuOTAnPgo8cmRmOlJERiB4bWxuczpyZGY9J2h0dHA6Ly93d3cudzMub3JnLzE5OTkvMDIvMjItcmRmLXN5bnRheC1ucyMnPgoKIDxyZGY6RGVzY3JpcHRpb24gcmRmOmFib3V0PScnCiAgeG1sbnM6ZXhpZj0naHR0cDovL25zLmFkb2JlLmNvbS9leGlmLzEuMC8nPgogIDxleGlmOlBpeGVsWERpbWVuc2lvbj42NDwvZXhpZjpQaXhlbFhEaW1lbnNpb24+CiAgPGV4aWY6UGl4ZWxZRGltZW5zaW9uPjY0PC9leGlmOlBpeGVsWURpbWVuc2lvbj4KIDwvcmRmOkRlc2NyaXB0aW9uPgoKIDxyZGY6RGVzY3JpcHRpb24gcmRmOmFib3V0PScnCiAgeG1sbnM6dGlmZj0naHR0cDovL25zLmFkb2JlLmNvbS90aWZmLzEuMC8nPgogIDx0aWZmOkltYWdlTGVuZ3RoPjY0PC90aWZmOkltYWdlTGVuZ3RoPgogIDx0aWZmOkltYWdlV2lkdGg+NjQ8L3RpZmY6SW1hZ2VXaWR0aD4KICA8dGlmZjpPcmllbnRhdGlvbj4xPC90aWZmOk9yaWVudGF0aW9uPgogIDx0aWZmOlJlc29sdXRpb25Vbml0PjI8L3RpZmY6UmVzb2x1dGlvblVuaXQ+CiAgPHRpZmY6WFJlc29sdXRpb24+MzAwLzE8L3RpZmY6WFJlc29sdXRpb24+CiAgPHRpZmY6WVJlc29sdXRpb24+MzAwLzE8L3RpZmY6WVJlc29sdXRpb24+CiA8L3JkZjpEZXNjcmlwdGlvbj4KPC9yZGY6UkRGPgo8L3g6eG1wbWV0YT4KPD94cGFja2V0IGVuZD0ncic/Pj1MfgoAABqySURBVHja7dt5lKV3Xefx9+/3LHevrau6uqr37iTdSYPZEBMWbYRggssIIWEUEUSHcRlxRoczyDhjE5kZl3HcjiMwgyKOIMQNAyMgYIRAAtnI0kmv1bUvt+5+n/23TewTz0mOaegOjYLjq87zV53z1H0+51e/5fu9D/+YfvwDwe/91IeZBgT/SAT/SH7w1yrXR20+X2po/ICsMSF+s9vhfZX1YvF3f5nhP+0AHOLN790SNxdVRduCzrqiWvfYdQ1Y7dFfksPSiP3PexrpO4/8ENk/uQBu+9TBf9NbVL+FV9BcGdJcSLjupu1cc6Pli/ekjDd81o85sjx1IzvzB0p3pc8/ehRx++1YwH1DB3DkCHLrd31T0d3wvCRJaa326fdifvs/3oolYYUIH0dMn4cX+iipGR0pzNxDdW91cWiXO23V7+hW1DS/3zmR/ML8nWTfUAG85Y6RS92wfsIPG5T8EhtLTV5246V8154XsCFOEOEYZZSclAGGCgGajIwCwTZq7CSyPdbUCTbTVRaWsuTzH9l8m/pU57fvvBP9dR/AW/9wet/mcnY68CUGGKQF/+2tL0dhWKHN0Fk0Ph6aGEOAROKwaLqZY7JcYlJMkrsNUhwrsQAnEIln/89vnBj73C+3hlwAn39gvUFuN5uKNHIkqWFkQjBBg3k6eJTRDBBoBBbhDEp4FBakhX7kUCqlY0/T7xaUKoK1TQ9XDphqVOUNPzTb6Z1p1Y7eTvF1G0Cl5GSnbdG5RRWW2ct8LAKPKpqUOhUCoRgFltAsDjR5Yan4mkBrHr8/YsuUROWOxlSZuGeIBprNMGdysua/+mef2zt6+yO1850sJRfRYUf5hcdovKBdPnLDiak+R/7+/RNde1MY+lgDWjlULDAYUlIil9MnZ6VIaLqUHIePI48ti2c0px5JSBJHa7Ug6muO3p2xsZCSDi06MmzMRzhB5dvfOv0SgH+4AD6Ed1N7+7smTu9NTHNsIJrhzw+O6ZHrvmnL/4anq5TLPzw+WWPLTI2JmRCdhxQofDQDDH2laCWO033LMC/wPEO1bAmrAmsFE9OGXHn0O5b26ZThusKkOUJkWJ2xuJBy7Y1b7/gHC+BHhs95zR2vemP+ppEXv+my8qywTUnnXsUgTUk2zRsO/NJk46kboH0Ht26Z3Nlgy7YaY6MVtsxW0IDBkqQ5w26OJz2Ms2RpQX8jQcUFnrNksaOz6WgvKTbOOKpTgrDiGG5kT9wvZu14zvrjOcO2qn7Hf5m85ms3BzjEoTtr0z/2LS858a3hgUbOgMgFXFWb4tjMGnPHDMYZrHKisPG9wEGA//GZ5z5n2/5RkaaOlbk+WaLYuqtCjmDdZdTLjmFf4DlHXjjGRxW2VNDcdKwt+iR9SHoSnVuEBZMassSwuaAYNj28siHA0dnIQIn3Awe/JgFceUJ8/IbRK1826ddFYbtUZYnEwpio8K0T+zBlwaYbUCtVGJ+qHqi9c+15j/5o/z63pmtLG0u08oJBJycZFEzubWCBLoo8gUoFVlY1OEslVKRZxuIxUMahcyhSgcoF0WZBWNI45+N5HjIAayFLNK0FGJn0t1/0EXDJSUqX1HY8UDoTXXG6ts6WEyET27YzUYGBzkmVouhZnjszzbUHns90Y5zUG/BbJ//vOx6FG9uKheFyTKeTc+p0HxdookxyzK2TOWhuKBo1i9MWIeD0CYvLNRunBdbkhCVBOnAkXYvTjsJKwnqAcZremsU5mNgLaEOpElYuWgBnh/y7R9/yvJOX/aLzjMh3BWwsDLh3bY30Ek19JCQ2BXFb4zvJnuvrLJa/yACfGcpsnqi+EjqEl/f7Y87n5FxKNNSU6o5dMyNMixLL0ZAsLTDGErcsuZHkHUceWTACWxj8UY9qw9FfKbDaY2K3JO5YoqbFGUOpLkl6lpl9gs5GIQEBuK8qgMMf2n/JNcd3PLTt2qnqcneV0K+QzoWsxS1Or7ZYiFuMyioVEXLd8/eQ7jvJSZezkxolYFJU3d23PpQCHL32hfklX/qcS1MrdAFmAJurBXpPQeAUJrWY1KBygdYOg6S95KNSQ3XMUaSOxqRmWRX0Fx0q9bHaJxtYxnZ7BKMSISTrZwxZ34hDhwiOHqV4VgEcdvi7Hr3ys9fvv+K6wZmILI6ZoIaTFpdZRpdnOTNYQK77bD00xqFXe2z4D+OAraKM50ALR59M8aRDb7/d9Ud3OYwQ0oe8sJx5KGb2YIsiLwhqjvlHFcILsMqhtEMXEq0s7RVB2jMIDIMVe3bI99Ydja2AJ0kSQS2EcEyQDcXZIJN6bRzijQtfBh1idG7vYP/ozHXRsRjTVcRJgs4NZmBR2pINLZOlMq96494nHn6A9rsEfQgygRpallYzFvKURZv0n3IStFGnklYakontApvD0ukcV1a0epbVYwVhzSeNLGliaZ9WeKHHyLREFx69Jc3GYwV54tAFBGUfL/RBC1TXkbc11joAdI6LY6af1Rxw6a/W3xleU6ksJx3qQUAtDKFwJGlBpHL6mxkzEw1u/r5Z5hqPkmcW15LkvkUvS4Z7NHoVimGJXjr8FE+hHB+xRfk1USvDeY6145aFOY+s77MxN2BsJiBuOrLIEFY8LAI/lEiZkQ8dunAIJLLkKI141CYDdHp2W02RWvLYgMalrew7m48mD19oAGL2R+p/YubtKx/cXGT39nGmJsao2zJVGdBqxShlmdpeonz9PHNly0Bpmo9q0g2BHQqcgfhvYGTCp3EJrM6Z9/AUpTFzW7heeY2UMVoVZMbSa0aMjo+SdB3SLxi2BH5ZIkqOouvorxpM7lCZIawKghFJeUqCEggnqEwGlKzD4fBr1hR9fenCPcmZC1sFXk5ttB4u+k5OlLOQ9d6QtNmmuSVjslInGWpm9o2w67uH4Pqoccvcakbz8z5OQb7pUCmYAlTP0TgQsPQ5/YkPv3XzkzzFTHTqWK96kHq9TEemJAPN3N1dDh0uU6QGAVTGPLJY0JpTmMySNM3Z32nlKJc8auM+Big6ElGG8qiHA8JJk/W7YuroH/QjzpMHwE2MHNw+MZBCVGf8cXRu0YWh38mJs4J2K2H2qpDKty2js4x8zDB/r6UdWYZLMHgQkqZDrztUC4ISrqS9Ex9/e+d63s7T3Hkn7kUv3fNv08yVh1GKVoaRMYsJBU5r2osF1nkgPaJ1xcZjKcOeIuoqpJD4ZQ+TS0wmKdd96ltDZCDQuV2rPdzaeu/tSXbh9YA6WWshFVtH6pSqEoKQYd/HRTmFsRx8s6AoOgyOeSTThvZ9gmFhMAnkCxa17gjqAi8UTgTcFS3n33vsPVmH/84z8sP+6/buqN+xulIhyzXNRQf17Oz53hpH0lUUiSVpagZrBQ4Iqh7VcZ9SzUMGZ+cFypMBIhBuuFH8+uN/3PkZwD3bipDYdmPFTNVHROBL8lzTH2YMkpzLX1YiG1VID4qho9czqNRBUxBOCJwCdxzjXSV+basu3nb/u1Gch3/3C5fMPXKst3ejlZAlhj2HR0EVLD6U0pj16a4IuvMFRWzwQ5/GVEBY9c7ODX5VUp7wMZlZWFv3Dm18YiPmWfJ5Uryhci+IyqU4YBgVZKlm/w11hjLGbDiipiORBmdAPCopNwRCi8g0ecPa9uLP+Z+YJc7fKZM8p1LxorLvi9holj43hFCgpCUKM4x2CP9v/07A6I6QoCLxpIcsCZ4IQEVL+sbjf9n+9EWrCpev8H6gOuH/QeD55IVh4gXg9yHvOfLYkI87XA/8DUllB2dMKG9avT0/zlfhW24e+Qmp5W8MM+W11jIKYdnz8pD4lCBaUqSRz9hsyNhBnzAI0KlwUbP4wLGruq/jCJZzOYI8e//G5PzO0s761Zfu947u+Nj73n8oejPgzlkUrVzud0szcszfZqlrSbToCDwolMNpXCjlx3WpuLX1OYZcPOKy7wq+ubdqPxCW2DtyUIj2Iz7SnB3ujO8pM7rPxxnbmn8wPbD88UGHL2P/+9hqu2J9pFTi0JUTYv/eKjuKS/nzz97jHvjj6Nc3/kz99Dn3AWlHH5Alb4MCMueoViVFbLXweUd7t34Ht2P4Kt3yIcL4WOXqomfe7LS9CY/WjivlTb//BrV/z2HKvaXw5/1A/oxXkUFtIqAy4ZtoVb3uwd9rfYDzIGPvgZouicaEpDGb0fUUX7j7bnrzVpRn5SuAcwfABk07Kn6ptJv/UPe8oVb2B9c/rT58Mboxb7qP4HsOzHx0e+WSGxwBDy81+fSfnSLp63EzNPcCE2ebHBQ/C8Xb9r+yfkgIjlSOrv3LL1xAvT/Lzf1hSW/vDaC5LgiMYLChSZYEdsHbfV59gfFb2NW9nUUukrd8dGrb9dduXX3R5NUCaghyYJZf+eB7efzRJk44F4UmvPMImq/S/p8rf7toe5/yqnD1KxqkjSHH7rAUcwKvLe2pj0U+4L7sYehiPjzAq27Y89BLJp8neuTE9MnQlBEcuGwPeeToLSPkpv+Ccx3Mzl489Tq3yqRtSStwkWS4DqrtY+YkMgBjkHsOU7qgesC74upMPQ4XF5fTQheur2H+7dcVL+A8vWflwIGy3Lp1jSEZGolHgKXMJlddcZA/Ku5D5wZr3W3AYZ7ihX/qf1Z8kBcOVizm18DgcDmUK340Mik/oSLvv5bXkoefNnICrysKD6MdK4+nhA1LYCR536Fye2r5M2QXFMAsu+4erU/7X1r5kr92Jq3m1m3DIRC4r9QEffFPX33HdHXnK3ooBqYgkAWp8Wn4llXWmC4dQvgeqtCgxPN4iqve5b9j+Ih7kfAgXxM4A9Upj2turfCS/fsb40H1Zom5+Wi748LLVr74ie+PrwN49KF0fU/F5mhR6qw76pHH5nFNdSRwqty4CpLzL4v/+4emaztKO3ZPhFuwRUg2gM6c4/DbqX3Zh3/XbPXKH3hhMVPd/4oBmkEG3TiimxiSVJO6grYqcPg0tpSoTwmAKiD+bh23kX2brIOKwa9Cuerx6h+/hJ+6/Dp2hZO0Keii2b1lVNzw7Xuf/3drP+9GqWVx0/Ax4zYfVJy+K8XOWOpXiCNP7hjPP4Dn7p7802m2UUKSZ45h3yF8J0j9qzgXh6gdKDeNqnpfPNlktZ2ysByxsjxkYz2i01c0BwotLAlNZnZPYBRYhbjsMFsArl3Fy3sIpRxnh65xTF3tce3kBAmCTRch8JAIhii2Nqri9S/e+RqetPIX2V+371J+2rBBnrpS2dO1x34nuu28CyKHj+Bfee30yo76zJSgROIGaGNJWlAUjspWXgvcxTO47rUjt43+64nag4+vYqTHyFgZIxyeyeh7Dt+3TEyUKc0EdOprXHH1NJ//0wVKoxA2vFeBeXd2JSW7ANRABA4VC2To2CIqtFxCCUlMQYYGoKszbnr+/ve/6NRz3ndqfvPR+bnOf9pYnfvY380Nq0cpLqgidOX1ozfv2Frbqp1ACYdyHsMsJxi3qC5kkRtwDkXffcLk5ufSWNPvGbprirAiyfKc0bEyW3YUrG7EOKqUdji2z24hrAmsdhjcjwPvtgUNh0MNBE5JpAEtLA6JhyDBYHCk2hF6oKxjQXfZPTrqz+4Yuerq55fuyGxNX/X64dSv753vnXdF6PXvDQ8NFqof3jY+sW+YlqgJnwxHSTpst0y8VqC0xSu7Fc6hl/sPLy1p+kMHSOKhob2aU2kIdFbgpE9pNGezKaiWS0xv24YXhnQXU2QorgBwjkmXCVwZ9NAR1iQSiUUwxDDAIBCEfojE4vmOaJAzr5fpV1ps9gTGef6uYLz9/X9iL33/zYtz51UUXXow+Eh9qr6/NSgLvBIBgiZ9+k6hlY8zjpEZIBM3cA5zn+wOUl04bSV57oj6hsqYpdvMyZKMuOPoLgrWFgo63YKeitiyu44QPjp3PkeQZo3dsuIomuAAUbcYHGABQ6JyHBbtHMPMEieWJLKsdDfZ3IxZW06I+oqF9UQeODR26tYPzr7wKwZw7bUEo1Ph7rFpH5xHtSFouxSDwziDygtkAHkEouq+iXNzD9/f+WA6UGAhGipWH8/pLBf4gSQeWjprOYNNw/qqptsfsuXSGl5ZohLY8XFKsswl6QqoPsgSlLcKonkwiLM/xjcICrQt6PUUwtcYFMYKgjBg0NVsrqWsnEpYXUrEvr0Td/2Ld86+5ssGUP3m2mvbq4hTX9IkA02RwUI3Y5APKVSGFI7aBGRdhzNM82Ucf6T0xuVjCelQk3YNm4sF2jhaSxnNuYQ0y0giRWdDEa0aRsYqqAyyBGE1k8KXl6gYlHJY60jXwGSCnkvJ0EwKgSKn2U0w1pAbjfDBKoHQHmMjNfKWT7Ku6awoFo5H7Lq89oFbP7jzJ84ZQDzk5ysjksGmprOaEsWaaODww4STZ1qIekaWOIIqOEMACM5h+e7lNFfquModlZqP8ABPEA8gHqasnzYUuUZQMNjM2ZiPyWOLM4DiYGWnfbtfh6ABXlngnMOVLDkWgU9CwEZf4JcNflUzWLMkm5I8dgw3IesLJBJroLOWEWX52ZEwMVX+zVtuwXvGAJJNf6cNBVlkcBiktMSDgnQguedza3SWDAhwIVARXwAcX8Ywj1/aXk9cfSKkVAlw9skenvNImoKNxYLWkqJI8ycCiSkSiwFbeDz64Btp+aM0rQWdQTAF1ljuP9XEAb3YUvJCan4ZFRuCkkVKaMwIeouG7rImaRuUNWgMzldobdk4kcn822Z/4+8HcIjQOuH1FiXWOJqnDL4niCPF/ELOqQdyuouWftMxWAU1NLfwFZz4SLpy6hHb2DgTx6MTZUThE1Y8fC+gvjXA9H3SSLA06LJ2ZoA2zpnA7W3dzxrgVOxeGVYkKMHwGPQXLH915yIFBosmTgpSpWiMg9ESz/rEyz4+HtY5itxRbjjU0JG0LMmaIx86KuPej/3tPufpARylSPpF5FcdKrIUStNaKYCcTlthEo/usiVed2Rd5x46xBrnYePhjXgHq6O9dv5AuR5QqQWAwGkIah5JJeb+uzdpzxknS3Z/9yiLPGn197hbCFl40qPogRo4uvOKYSchGUJ7TSOrGYnRlPwAfPAEOAPDJcugnbF6tMBYR2EMeWrwEEQbVnYHYy9+el8AqF7hfT6U3hucEfgjlkYjxBiLUHDmkSFxK8coEE7Q/yN3G+A4D489hls9Fv2vUs3LgJcanMi7BtXIWFuK7OaXij/spPa6+DgteLqZm6Qu2uJlxlgQApvAUnfI5VdsQaNJM4ctBFFL4nLQytFeyEk7hva8IukriqHDZgKbe6AENgfpo5Y+m9zxtDlg/a+yz/QXisT3JcmqY/1kSvNUzvLiEF0orAZVgMUBOC6MO3F39xeXH4+3tVrRQjuO0vmjwx+d/4s86D1uX8c8Gc+gdrP+VVF2zlmo7wR8x+ZiTnM9JVABQVbCFmdPkyhrSWLFYF3TXszRhSHtWqIlS7IARdOitIW6QRX68DPtBF2cu1vrsfkIiCcCyBmbCum1UoabOZTB8yAYEX8AzvEsbJyOmpxmD+fp/uehnvsWcca1wn3ZmkYXFgUcvW+TG79jP5t5gk4ceaJgNKYYU6Rhga1bpHGUtIfOIeorTO7wa4LShI9aFzuecSfYuj/5aBKbDAlY6LUy+s2EuGNJh5ArHjnzN/b1nC+HuPne8Pteezz49LV3UOXCibFqbU/JhuSnBaLjkS9IVh/UxJnCMwE2lRQ9aJ9w9I4Lavss8RlHviAQmcQLznasMPLJ+W1FIJElQDzjYajfU5f6FbGoEyvSIqMYGmwGVtIdHHNXns+3wQHue071TepD7jfbmQ38sqCsg6Og9nIBLvnJ+qRpBtLHUSp7qNTggNZcgch9rK9wFpwB1RN0TzqiROAw6EhiPYvvC8KaR2XEww8lTjqsdoI9lJgnk/B0nYfTZTGijigvN/nQ2jRxQ+24Z2fZbTvn//4teEeOfsurP5P8YuflP/krevCd+xTr9d+J5kQQLwnSdYGI5TYuUNWat6Rdg++DXxKIEHhyzZfWIAzELQOBAQvSSVwqcR7owiE8zj70yNaAiR3ls00W35ekPfMw8+TnPA6fuD25DfgFAMABHOWZbX0p01PT4dq24oAIupPUK6NUgkAEqkzZz9Etx5bnGnTmQkBcyASaRW6q5hsKbZElCAJB1HOMTfpoLRnEOYWyxEuQtoEMyASVWYENPALrUal7Z7vI1REPryponszOHPtY7yrAfaWKkPuKH/YmStqKFTfwxeZCRKu/RpEmpEXO2HSJ3ddVuOx7Cy4/GHLl80ri8BE8LsCJ38/eqIzJbGCw0mFwFDFUt0lilWJye3YrnccGk4MDhAfOCkYuk4zOhNSnA+pbfUb2+Niabt7/3tZ+wF2Ub4uPZ/K3VN95/YpitbnErl27WRWfRoz3qV5T4DnBoOvz0D2K2VmfO29HcmFcbt01nvEe01jUwOGXAGlJu9BvapKuQWWQpQqNQ/VA4NHYF1KuhFTGJH4o6G2o3if1+gzgAC5KAHHT/rUnxb+qTwvWpo7yJ6eP0pix9Fc9RMXSOQ3DVUdjO9z/oBOTE2xpwRoX4OTl0fF9n607XUhhM4nSBtWxzJ+ISFuWYdcgJWQdh0ktXiCoVgPKRYnpK0o4DWvH0+5nFtenuB0LcNECkA3u3rpfIipw73sU9T2SsAG20OgCdB+KLqzdYzBKu2GTWS4wAI5A8VKNM+AicErQPK4Zm02YnWrQWy7wGz665zC5ozziUR31KTUktoC1k+lHP/ur698NOICLGkC2znqz7whDQxBKdM86WccULRIR2Kb0vNOVndxH5D5veuZxdZozPAuB9qjPerRNge5K8oEh2F4gGgozqUhaDocjqEmqU/7Zz6IS6x75y8HLH/9w+5NfuzdG5snMHnu5mGa9NTQxd6GfunKA4SJwjWpAqSKo1wNQgqF2LN/nEAcz9ADs0FLdLimXgrP9gyw3/fUvqB2P39mOvuavzBTzHHvi+loSOrcE+IxUA5wBbTXZiqWZGELpUao8cdUElQlBf1F97IHfbb3i/F+Z+fpnV7Nib6+ffyi1JsOA1BJfeZR8j/p4wPiOkNqkdO214nueePibLmSvIfgGM3ULddLgh/3M+7nJ8eqWrfvLQkCy9Fix7fhftIb8f+Uw/r4bay8FBP/s2fl/YsGiLcb+Q/4AAAAASUVORK5CYII=;" parent="1" vertex="1">
          <mxGeometry x="248" y="488" width="64" height="64" as="geometry" />
        </mxCell>
        <mxCell id="v6uGh-rntbnxNq5KT3Zh-9" value="" style="endArrow=classic;html=1;rounded=0;entryX=0.5;entryY=0;entryDx=0;entryDy=0;exitX=0.5;exitY=1;exitDx=0;exitDy=0;strokeWidth=2;" parent="1" source="v6uGh-rntbnxNq5KT3Zh-5" target="v6uGh-rntbnxNq5KT3Zh-7" edge="1">
          <mxGeometry width="50" height="50" relative="1" as="geometry">
            <mxPoint x="430" y="560" as="sourcePoint" />
            <mxPoint x="480" y="510" as="targetPoint" />
          </mxGeometry>
        </mxCell>
        <mxCell id="v6uGh-rntbnxNq5KT3Zh-10" value="" style="shape=image;verticalLabelPosition=bottom;labelBackgroundColor=default;verticalAlign=top;aspect=fixed;imageAspect=0;image=data:image/png,iVBORw0KGgoAAAANSUhEUgAAAEAAAABACAYAAACqaXHeAAAABmJLR0QA/wD/AP+gvaeTAAAAF3RFWHRTb2Z0d2FyZQBQaG90b0RlbW9uIDkuMM0c2DEAAAMqaVRYdFhNTDpjb20uYWRvYmUueG1wAAAAAAA8P3hwYWNrZXQgYmVnaW49J++7vycgaWQ9J1c1TTBNcENlaGlIenJlU3pOVGN6a2M5ZCc/Pgo8eDp4bXBtZXRhIHhtbG5zOng9J2Fkb2JlOm5zOm1ldGEvJyB4OnhtcHRrPSdJbWFnZTo6RXhpZlRvb2wgMTEuOTAnPgo8cmRmOlJERiB4bWxuczpyZGY9J2h0dHA6Ly93d3cudzMub3JnLzE5OTkvMDIvMjItcmRmLXN5bnRheC1ucyMnPgoKIDxyZGY6RGVzY3JpcHRpb24gcmRmOmFib3V0PScnCiAgeG1sbnM6ZXhpZj0naHR0cDovL25zLmFkb2JlLmNvbS9leGlmLzEuMC8nPgogIDxleGlmOlBpeGVsWERpbWVuc2lvbj42NDwvZXhpZjpQaXhlbFhEaW1lbnNpb24+CiAgPGV4aWY6UGl4ZWxZRGltZW5zaW9uPjY0PC9leGlmOlBpeGVsWURpbWVuc2lvbj4KIDwvcmRmOkRlc2NyaXB0aW9uPgoKIDxyZGY6RGVzY3JpcHRpb24gcmRmOmFib3V0PScnCiAgeG1sbnM6dGlmZj0naHR0cDovL25zLmFkb2JlLmNvbS90aWZmLzEuMC8nPgogIDx0aWZmOkltYWdlTGVuZ3RoPjY0PC90aWZmOkltYWdlTGVuZ3RoPgogIDx0aWZmOkltYWdlV2lkdGg+NjQ8L3RpZmY6SW1hZ2VXaWR0aD4KICA8dGlmZjpPcmllbnRhdGlvbj4xPC90aWZmOk9yaWVudGF0aW9uPgogIDx0aWZmOlJlc29sdXRpb25Vbml0PjI8L3RpZmY6UmVzb2x1dGlvblVuaXQ+CiAgPHRpZmY6WFJlc29sdXRpb24+MzAwLzE8L3RpZmY6WFJlc29sdXRpb24+CiAgPHRpZmY6WVJlc29sdXRpb24+MzAwLzE8L3RpZmY6WVJlc29sdXRpb24+CiA8L3JkZjpEZXNjcmlwdGlvbj4KPC9yZGY6UkRGPgo8L3g6eG1wbWV0YT4KPD94cGFja2V0IGVuZD0ncic/Pj1MfgoAABsdSURBVHja5JltjGTZedd/5+2+1UtXd091z/TOjHfH3o29sR2vWbTrtZGXgKWILCIJBL4lhI8oIglCCor4sBECCQkhIUBISEh84osVFPEtwiIrCCCv4zjx2ru2d2c8Oz0v3V3d1VV169Z9PedwptQtlfYFeZGJFHFGfz2nnqO6Nf//8z/P6Xsv/78PwZ/G8AgE/gPn7xvrdfdnU4A1oTX8Zfyw33n1AgC/uLH+k+Bf3fy+wP+ZEOCCvAxk+OoGgUCG7278Tljj5Q/53TH49wgBABv5H7cg4sdBel3FS4IbVQ85JiAA8otYgUjAP47PAt8CEW8QTMAPAjYE2bwmXLrCIzZF+dMXwCM3SY7Bs0EY4JJ4FXAzYAbyOgCwDeLRBunJBsn74OOA94rx/8IV4qNWfON74uUL4pukNytdB1wPGAfMQYaozAxZjIYSFhjwJ+Aex8dYbJKaQN7hIouPO/z9J/Fb4AAuRXltHdfg/7ZfiI/e4N5v7epi/iwAsARRBgxA5gEj0Nv0zZJUxRRixYo0zBWJLMvKFmlpa/ANOLtEKPq+6y8tDBkuwFplu+7c1mPsCNzbAEAMfgxuwx0fWQjxUaq+7tYX5POAzSpzMWoQTcDggviA/ciTq++z8vEpw2sdo0GzO3wQnS0mV5kegPBEumoQzgtr4no1hyYlSUuq8jasFLhbEKt7W97fnHcz8Am46GKrpBdO+qtgN0X4sQmwSf4OyEviY5BXLuYABWEt4GrAsOhFpuf0G5T+4JydL57//CsH4qlXEj26Ib3YXtr5u0fm3u9/b/VH377zzDtvWGg68Pp/Da7r15/4hajtfb6/P3yktDppkvz1w5/5+u8mKbkHk+UDwSDvcvAV2ATcIADoxuC/GvCjiiA+yn6/rPr4wtqDgBaEmaHiEdIv0VsqNdtpot7lvO3D1nN3f+5nrouP//L+8PrnEqNI5Yiqy5m3M/Ky4OT8tDttJv/9B/bN36uOep9r76u/sr9/MNzbGeOkY76Y0ZaOs9OzP1hkD/+N+tnbf/hHY6afpxdZCuuhe4wdsG8FXA+4EMH9OARYV37CGvKykxcX5NMAD5qArErjLIlMzdy2S9KfvPvyl5/Jnvvbw2j7BStynLU+NpEXIhZn5SmruvLLusOoTKo4pm4sXec5PjliPp/anukLFUlfrAq07sm280LXjiu7+s3G5P/591/62r9Lk7TtF2Vb92guRbjD2gXutYAfxQXiw8i/CuK7AXdA7gVsNrUywIASoFPSZAsTn7HwriH90oMvf0He3/mlXjz60s7OkGIV8jifpJlESlZtw3mxwEQp+WqF9NobE/tBbyhGcd9npieOTh+Jdw6/w/nilM4qjM7IFysXCSVu3bwuPnbtgO9M3vhnv/uVP/hXn6kS0yRVuBLNHrQ5uAXYZwN+lK0gPqTT8zLI/OL42gLVghhcEI8hMMni7SyKZ4R/gfhX5j/9wo3V87/UzJu/WNg5dV0SKeksXrZIFuHzKl8yLwqEkihjkEIipUJpTRpFjNKEg+0xW71REGoa7H/G4ckhP3x0yCxviXRGT2X2ZhDgYHzD/nH5X3/1jb9w+/eunad02+WqhGYLbBOQBwzAbzrhRxIgWF4CXFb+BNSl3UtCXGJStRM36dQvwbz48IsvPGNf/uXIJ18p27k+Pn2Ew1pvbeCVkJc1x2dTllUZCOU0VUs2StnZ2UIbjTIRTV0jEQyiOIhguDq8Qi9L2B3uIyXcPXqT7z54iztHxxjVZ2c4cs9/4kWZn50++lrvd36l/rz4XnJWdeUupYT2sh9sgbsV8H9ygnqv7ScXth+AKkAa0DGonBALon4/5E3o7K8/8dxn3/1Lv/nJ9KXf3B7ufvJodl/Oirn1Ssum6eSyskwWSx4+nDDPSzpLgMPj6Q0yTBrRtS1FWbJarmjymrBKlPUZxtvsjW4Q6T6RSrky3OHJqzdJIjjNT5HCiM5K99TBM8P6+/YTb1+5/bVsnLR10Xkd4UvgGfCPAgD+PPAmeH6b9w29af3XQE4CxgERqPai8gWobYh0D7l9uL3z7Dsv/v3rVz71N584uNGbLI65fXLHzpYLWS5rFezNPBCfTM4QStHaDhErpBF0dY0VDcvSYmWD0ZquszgHUgictyRJjDOCo/IRXbVioCAz6XqrPP/xL9DaijsPHrGqFnLpWjva+diLo/948OvVrz/87UFLXIHzIB4CQ+A+CMBu3oq/3wGvsrb+MYEgqCjg8kzvgxqCada7VCWf/cEr//ypg6f/1u7u9WhaTe2iKYQnkoSqeCvXxKenM8qyxuPh8WqqUNKD6ZCJX6vrpaNxFatA0ntL2kuIjcb6mqU9Z1GeUtuCOFJoCUYlIcY4WgJ5zmZL7ty5K+69e+Tzw/Zz9Rvi4eCnqz+uZyQywXoQLmAXXA7+S6xdQHCBf78DNmwfBcwDatbkxePoA/mO0n3uD3/h166OnngljobdbHWmzqu5qqzA+8f/qYqqbVFpQovDJBoraqK+QUYWnKfXT6lC9EDTVPjOoVOC3XfAi5CrsXXFVpzR621xdecafW2IRESiB8Q6Zad3wCJ/nbaC2289FMfvLkN+IIbl6Lcmv9O9vffX828uZmS9EeUKmILdAe4AgHuvC/RF4xNLkHaD/H5AHWBXGLKSq5PxOKp6fyPa6XnbOnkyPxF5INxaj5CKumxpCosTHpEKmrbC6xYfCazyWO2wokXFEq0McdqnbRpwMBj1KIoVbVch44hOOWpVcd6d0PiYTCQgBMNkm8n8mOnZjMUZDNIR8Y1dITDu4NbN0dF3jv7J0We/+3euPM1pC1EMtgFdg6s+5MiXXDS+MuAxeRMwAs5BKFBpluowb68+/OSnI2n2TJSFY+m2vPfwPvP5gnw2ZzGdMVucs7Q5y3oGusGbloaKyhZ0ooGoxYX82mLarWOcRGRxj7KqQk6Q9A39rR47u9uMhlvISOKNJY4NxmiWzZzDo7s0paItJdWsJU17DLdHcrlc2CzJnvX/4eAfdiCpSVqIootTrL74axYCPGJzC4g8AJAaCPDdhlpxhTAJzsyylwbbfaVkbFuPyrZ2aNoOKf3a/osiR2qPFw1CW+JIE8s+JjLoRIDpGOreuvqtawGJ7VxASyehl/YZRNmarDAWGUPfDBip8B2nECim+ZTJ0RmrucVVmtVsyeL8mP7OkK7tpEq0i3X/r53/y53/Nv616X+q5sTxFu0c1BhcHvDe55Qa8LdA3LkgfymAAv8YVVJ2txgOqeQLSTqgbFdCphF2tWJ+PsdZR1XVyMhjaUkGEYmO8M4jHJhY08U1TnvSOKULhLXQIMV6i7jOYZTEJJJBmpHqmMoXtL7F+o7aN0QuRcmIo+kPOTvLKfOGdtkFISrquqbIK/rjvjDS+/72QDS3+79x/D8W39j/YnfYrtBdRhPxwUNyMSLwAPnFraYCXwbMoe595+ZTsUg+lSYR89UDcXT8gMMfHpLPl8zzJUW1WjsB7Wi7hp7p04/66Ejjow6v6nWHd75DK02kDSiLiiRZlqw/S+FpfElDCXQI5/DWIz1EJkYIODq7z7Ks6FpPs2oC+Q7vQRuDdR1xP5a9KHV7e1dvtF/d+Q0AX2MsiBj8IOADe8CdiwVz4YDL2F/2ycCaB70X9/cOUoF3k+lEFPmKtmowRq2rpxNJaVcgPEpK6qrCSI2JFbUoEZEg62WIGHTIoT1SC4zSJFFEP0sRSgCe1jW0vqOvhwzNEOcsSMnh4g4Pzx+Edbv+bmM7nPeoVPPxT97i6ac/gVSCuqnFcHvoxsm1n7v/j/s/e22bUj1CbzytEmwK8DKIWwEA0QX5EpwGTx+ARJXJi3vjMSdnd/zRyX2aukEIQfW4Gr4j6UcMBwMEgrZt19VwwoJySA1ZnKCUxMqWUhZY3SCkIFEJA9NHKL9GYmKMViEfYYQCLD3VR3rFg+ldZsUM5wEh6ZxDJgoZwdZun49/+mNcubaFE060dcve1StSP9r+B3feiK7euEY3PUZtPLwVmw7gWyCaDREAuhlCsuyGf5Jd292+9vxWusVotCN396+yuzcG7VnVJUIpcJKqaTCRZjQcsr29zVZvSC9NGQ+v0NmOvF4gpUAZSBJDGifEkcFLh1WWJFrfEDFMhoyyEZFSJCLkpGFZTZjmx9jO47zDBvKds8hEImPBpJyg4o6f+NgN6rqkbhrZ0oXLqqfm/3br7y3BXwU+6KGtHAd0IHbfs6DUQL0D3f702eeu7t3YK1dnvuyWXBntE8Tg2pV9Pv1Tn6E/6hGOoHVz6/cyTC/CxjVtVKybWdHkLKocK9zaCbE2GKnWlVZagHZERhOtt4YlCev78R7jaJdUmPVWWDUFi3pJ2zrWTvIWLz3SCFQqkNLx5GCPrSjifDZlsZgjLLLMS18c1q9MX4vHzT52/g7yvTeCGuBJ4Aw8wAHQgMgCWpCDev+lXpLSidolUU8t2gJcx9XBPv3dHVQEBwdjWlfT+ZpeP0EKx6w6x/oGrRS7gyEYS9WU6/Mc75HCE6weokBIRyQ1fdVjWw1IURhAqpREJBwVD1lVLbaDzvv1qeO1QGmItwyDYcKwnzKZNbRNw/x0ztbWyHetlU1Rn0ZPig7Q4wQ7Af+LcPnYDP3Y/lsgNx9qllNkvZO75+Zbu03VfcGolK1sV4j2EVlVsxxKIq0QUUOS6kAqzKXG+xitJc61uCjB+pCPHDqOCFNq12BkhAgfemTELsapDiUEmUq5oneDCH3sYyFlH1A8qg85WZ1Rr8BbTVM6qtLigHUj7QeB94Z45XgwOQYU+TTn2w+/7Z316L64t/tkNZ88IN6/TjkB8RgXb7DQz4G/A7QgDHiAdAdZQrf11tM/oZR+etXmDIWXRTfFyRXjUZ/KCcp2QeBGliakJsL5mvlygnUlqYZYZ6zUAqVASEmqIhI5WAuQuV6IEKkBccgP9TAIcBWpILdnnDT3OSwPefPk+5yeFIG4xDae1byhyi06jhntjrh16wnGu33m9TmPHpzRVeC9YHlcSCGFN4n5qbd/a/DlF/5p/l/ePMdc38blGy9y9AQkwCX5BoTKB+ruIG8/czb4QjbIzKPiXad62zKQJB2m1FZCU2OFx5iYfpzQ2BLnq2D3XRw1rV8F4jYQu0LtC6qwhoex2WIod5FWEYsMJ1uMMmSyR+0Kbq/+hAere0yrBfcXZ5xOlqRFuEbe0OSC/LTBt5pkmJEkKVnaI4sS8sWc8+kSW1qEU2hjRLVofJzpJ4qvR//+tV9Nfv7Ff1194/vfRtnP4u6ABKy+C+wCm2MwyO3Bkqw5ti/l4xkFrW/I2e5FbGe7KNlDa0VmDP2kTywiZm6Bky7kHYqQl1sIKrSSeJnRuYZMDdiWByihQQsW7Smz7oTONkyaYx4UD5gWK8rSU9Wek9MZcTmgXknsQrE6b6jPLTasiZHCVvDO9w6plwv6RrK+AbMeOoHUGhEmWhvXrexO8wP7qb8L//Mf5aRDECeXDngSqN/zSupwTDN6bfSx/Lx8rlMr6Bq58kvenTYMsiE3x7eQUlL5HG087nEFk5hI9DlZvUvfZIzUDpHKkIIAiVSQyCERwa72EfertwPuclpNgxA1TSdYLi3LvKMqO9oGbKGhTlkcV3QLweqsDdHTlpYiLXHKgXEspgu2dhKs1GhpaTuP7yDtJ96YSBZtsUg/077+LyAyz+DfBq5fCgAQg79sgK1A7IFd3Et2sH5Y1Q2RldhaUneeojwj1n2SRDKrjzle3iWJeyQyDlBEOmIlCspusT7yMhWRqBgpAwE7J+/mTOpDHhVHAQVVIyk7R1W3VMsQFw7ZGQI7VK1Ynjbr6p8/WITqd7ha0BUeX4GrPE3R0K4E0ki6xuG9wFYt9aJGR8o3VSuct29df5V7U1A7Y2y8UXCdgi9BpJdJj++Dnywq33rvtAe7knRovIxQkSQSEV1VUSyaQGqBiebr8zs2BmMkqAakXZ/14QhlEA/IdLYWYVYekZcFp7OG40Co6wQWz6ps18RcpZDWIx4TCYI0s4DTDl9CmmQUqxm+AVuDqwI6AYF4frRCOIkQhqZssJ0l6kW+q1qssF//+oD589+k98afo90FP950wATcTRAAU4d/Bvzt2NhmbsVWb4d8NaftGoRxPH1wiye29nn78Hu4KiUscHY2JYoD2V6MNBBch5AeTM20XhHHS7aTK1yJRuRLmMwD+bOOYgY4SU0g34GvNLSaurTYqsaVgnYm1iJEKsG1Alv7EAnrlnbVYTuHMI/d2RBnKb5xId8ipfTaaNlVFrXTfgNwSR/XAzfYdMAJOEDcA38TCBz9N4HIpK5cdT6OB1R1t35FdSMcOZ+49jTl8oRlXlB1DkuK6AYsqyJghY4E2ihQEqkdRJAlEWSerYGmWkkmk458KrClBhS+8zgLWL0mWC+6dXXbhccXGuElDkFbd3gLBHSlw88aEB4XWYR57KISW7C+lo4kIETXdufbL/KtX4Eor3Ef+FQ4AQ9wj/WcIID7y8nIrpz0xbL53+2bXawdVRXHf2vvmTnn3tNLoXj7RVugfDSpooFCVISkPBH0QR+8PvhoBDUSE1581fJiNIFEUB4qMT74YKjGREkwEqUhakEgEoKVAikV2tL2ft/zNTN777VsJ73JyT2xqWlIatJ1sjLJmdk78///19oz2fkP12zYRJ2Em268hY5z/Ov9t1icX6GfoFdVmCaiGGkQkUJx4vBZTtF2tCfbhLqgsgyb7BB6jt5cIPSFGFyjZJUUTYbWgVRC1UukUpDg8eRNfzvvG5W1VjAalZMJkgmUhm8BIqRKmzZtTbYNQ8De2PkoJ47Nkm34JLELNj36JjgF1gXhfBQJA8zHQiUaS6f7bNy+mR0TLaY7HU6cfJvZuWVWujXLw0AZAjFG8AqFYj7hzJPnQpjI0MqosyEuDpnP+iwtBAbzjnKQCFEbAmIyTCEM7WwqFhyuWXgNUkLEo6rEMoECBhYMnICBZA6S4DJBCkfmcvJWYXW3tmxK/v4CdD9zlM78NLaNNbvC0yMEtKFxYyDo0qNVosxt/vgSSztW2HnjJrpzp/nnkXeYX6xZXKpY6vdxhcd5QRAcHqIj1QkdREI/UReJdmuCVoyciSsszZWszAeqQSQFbRRzzhOjUnYjTh1mjhhpCMi9oChWKjFEXCEIDhwYAkozxqnHi+BbntbUhFUrFVW/kolt8spBkOxqrHVe/bEWGK2CYwBAXdWSlpMPqWLQH+KoeevNNzl9uk8vxKZMRTMkOsQLzimaFI1glcM5IUWQyhOH0LeagR9SLtfo0BH7NLvIFgVMqcqA1aAY4hxEGmJSldBkiBMjmhadXFyWuVhFzAyR89R7T2uyaMbGQdJyqfRG+sf6B/XQD6BVXkVqj5quRl6FZbQFOgMUwxVPplOLr8d5RDe5YNb78Iyc+mCJQZUogxJrT7vVwnkIoUINUjCsBAsOywUvGS7LAU81CJw+NQ8rNVYJaSjouWNlTRuoCWYKQC5CTBHDGoKdkEh4NT2bBiGlYiJ3znmRTMhbOa4lIKB1Sv3lga9TdXDzw/bN2x9g6eQR3MZd1MMRP9HYnuBqJUzvRm/4BcXL33n3uNb68xRNuh8ucuLoGZYXAnUfYl/QgVAvJaqzScxw6WyGnCK1ybVFYW0KaeOtwGlB6CZ68yWDXqTqBbQ2CB5LzepOrBKiDk9GSIFkEU2aVNVCFfywX5p1wu8MfS/WydfDWkwtpTJpXdZqRkpV0v7iwKcUfnXn7+2rd36LE7PHyLbuIr4Ptuo/XLMjNAL+fHY6aEP+dcOfxTrO5q1Cuou1Lp4pWZ4P9BZqQk+JpaFBkCoj9YSwlBpwVT+S+qAVoBlWSUOShIxyYMRAo7xFRauERYNEkylGYoxJA8RSfT0IUvvq+c5dYeZLL9rXtj7ov5B15KckV5Lw5nCpVhf60Q8Whk59/di9r6dv1NfTf+cY2dQN1LNgq+W/1kMkM4Y/Cm6VAIDZg8jxIf7dz1PteGDrD2+94/rvhpWuHn9/zknhiHUEB631bcCAhMZE1EhzThzNz3uKdS1EDUXxTvEY3YWKshcQE2KpaFRijDgRNTHRuklkwl6Y2GVP3fNLXtgC1ctv0772VoZ/FPob75v4XD0rj1D4HVqnCgw68TdPvxSeegza2RFMdxFbYGu8AuMEzIKstaoePoCfmSE+/fXpnZuyzS9ZCBtOfzBrWStzmKJJkcKjKZI04jKHiCAIWZ7h8KQ6og7E0wD0hYEqdS/iXE6j8qApf411FDOEaKjowYmb7Km7nuVPn4XBcwsUS7PYul2k4jjGITj0FYZmyKfeYJJNcC6/DfXjc7RbCd2wiTQL2gY77xEAxn0CguFnANZYXfeCO3aQ7Nh9lHc8fNvjg9nBIwsn56tYhcwXToqpFqYqYVgTQxLfPgfcIzhEHZlkTQVILohvntGYi1ShREsjDY3QjRrKJFqqpNow4cX2deknn/gbf/gLDO6ZY7J7Eh1MEtffjALsBF0VqL0TY0/zn/RAznyIn9qCHgcb9RCusdqOESCAsCZmQA4fxu/eTZrdf9stRw/MvTpcGXRSaHZj8XmjPk351tEkR32zNeaQJIiK+CwTESFv52RtLy43yrqk6tYauklCL0ocKKb6VzdlT+x+i2dfEwZ736NdvYKszJBWDU8zIA2QNfd4rl27U0g5gbAbAKZBAdaANxi31cqYxX10cpCJd/Gfvpm0//6rvlwtx3utlmtj0O0WbYvGdLUZHcSK5nE0meG9R2uF862ACC6DLPfq2s7Ord51P7hqJRBLfdmt44nbn0+/PbSd4UNG/ucncdtuIx3ci7FWOcZj1Mk2DTbiNBdAWYN2bDDjHy7IKAFdkI3gnhMqADPkbmj/ex+dweuss9n8Y7qi22Jp27NWttm7bFMcxm2a2OrETZ8l4SrJZNJ7QQohlpG6Cq8ll55c/+P069P3099rZAf34fge6aJAj2MQxq+1C4EfJ0CwC1ljZw/gqlPI+rvRnXvQZ0Dlv0w6Y/g3fsTkwqt0/EKxIdT5lhTSNle7G5JxfPP3B88c+SLd5gm0H/faNSgzKBeMURDjoo2BHsFz8Ta58YkdYICNXb8P2I0AcBjhJLIHYA+sAuICBB3Yj+MigY+CGhPrEizzFzRKXowKFxy7DwEaklYJ+vhWpL0F2/kQegD0YgGPKQrjZAAfCQGXxPB4mdr/Bvijj4yPKsZVs4sdc3l9NmfIJdzo2Bz/bwSMf/tnyMX056WsK5cJAZeu7OUHeDzcpfZ4k8DY8UJjrsSVuBJX4jKJ/wAISS0cyQbHtwAAAABJRU5ErkJggg==;" parent="1" vertex="1">
          <mxGeometry x="448" y="289" width="64" height="64" as="geometry" />
        </mxCell>
        <mxCell id="I-AgJRsssyMxJPqGonGJ-1" value="" style="endArrow=classic;html=1;rounded=0;exitX=1;exitY=0.5;exitDx=0;exitDy=0;entryX=0;entryY=0.5;entryDx=0;entryDy=0;strokeWidth=2;" edge="1" parent="1" source="v6uGh-rntbnxNq5KT3Zh-8" target="v6uGh-rntbnxNq5KT3Zh-5">
          <mxGeometry width="50" height="50" relative="1" as="geometry">
            <mxPoint x="390" y="550" as="sourcePoint" />
            <mxPoint x="440" y="520" as="targetPoint" />
          </mxGeometry>
        </mxCell>
        <mxCell id="I-AgJRsssyMxJPqGonGJ-3" value="" style="endArrow=classic;html=1;labelBackgroundColor=default;strokeColor=default;strokeWidth=2;fontFamily=Helvetica;fontSize=11;fontColor=default;shape=connector;entryX=1;entryY=1;entryDx=0;entryDy=0;curved=1;exitX=1;exitY=0.5;exitDx=0;exitDy=0;" edge="1" parent="1" source="v6uGh-rntbnxNq5KT3Zh-8" target="v6uGh-rntbnxNq5KT3Zh-6">
          <mxGeometry width="50" height="50" relative="1" as="geometry">
            <mxPoint x="310" y="520" as="sourcePoint" />
            <mxPoint x="360" y="470" as="targetPoint" />
            <Array as="points">
              <mxPoint x="320" y="520" />
              <mxPoint x="330" y="510" />
              <mxPoint x="340" y="490" />
              <mxPoint x="340" y="440" />
              <mxPoint x="330" y="390" />
            </Array>
          </mxGeometry>
        </mxCell>
      </root>
    </mxGraphModel>
  </diagram>
</mxfile>
